<?xml version="1.0" encoding="utf-8"?>
<svg xmlns="http://www.w3.org/2000/svg" viewBox="0 0 64 64" width="50" height="50">
  <path fill="#cda1a7" d="M5,17H59a2,2,0,0,1,2,2V53h0a2,2,0,0,1,2,2v2a2,2,0,0,1-2,2H3a2,2,0,0,1-2-2V55a2,2,0,0,1,2-2H3V19A2,2,0,0,1,5,17Z" />
  <path fill="#72caaf" d="M5,13H59a2,2,0,0,1,2,2V51a2,2,0,0,1-2,2H3a0,0,0,0,1,0,0V15A2,2,0,0,1,5,13Z" />
  <path fill="#97e0bb" d="M61 32.57L40.57 53 61 53 61 50.79 61 32.57zM61 20.43L28.39 53.04 35.68 53.04 61 27.71 61 20.43zM57.8 12.7L18.5 52 24.57 52 61.22 15.35 57.8 12.7z" />
  <path fill="#a3e5c1" d="M12.5 24L13.74 26.26 16 27.5 13.74 28.74 12.5 31 11.26 28.74 9 27.5 11.26 26.26 12.5 24zM51.42 28L52.27 29.56 53.84 30.42 52.27 31.27 51.42 32.84 50.56 31.27 49 30.42 50.56 29.56 51.42 28zM45.42 45L45.92 45.92 46.84 46.42 45.92 46.92 45.42 47.84 44.92 46.92 44 46.42 44.92 45.92 45.42 45z" />
  <path fill="#faefde" d="M18,49H10a1,1,0,0,0-1,1v3H22l-2.4-3.2A2,2,0,0,0,18,49Z" />
  <path fill="#fff" d="M22 30.71a1 1 0 0 0-1.92 0l-3 10a1 1 0 0 0 1.92.57L19.34 40H21a1 1 0 0 0 0-2H19.94L21 34.48l2 6.81A1 1 0 0 0 24 42a1 1 0 0 0 .29 0A1 1 0 0 0 25 40.71zM34.87 34.68A2 2 0 0 0 35 34V33a3 3 0 0 0-3-3H29a1 1 0 0 0-1 1V41a1 1 0 0 0 1 1h4a3 3 0 0 0 3-3V37A3 3 0 0 0 34.87 34.68zM33 33v1H30V32h2A1 1 0 0 1 33 33zm1 6a1 1 0 0 1-1 1H30V36h3a1 1 0 0 1 1 1zM41 32h2a1 1 0 0 1 1 1 1 1 0 0 0 2 0 3 3 0 0 0-3-3H41a3 3 0 0 0-3 3v6a3 3 0 0 0 3 3h2a3 3 0 0 0 3-3 1 1 0 0 0-2 0 1 1 0 0 1-1 1H41a1 1 0 0 1-1-1V33A1 1 0 0 1 41 32z" />
  <path fill="#8d6c9f" d="M62,52.23V15.06A3.05,3.05,0,0,0,59,12H5a3.05,3.05,0,0,0-3,3.06V52.23a3,3,0,0,0-2,2.83v2A3,3,0,0,0,3,60H61a3,3,0,0,0,3-2.94v-2A3,3,0,0,0,62,52.23Zm0,4.83a1,1,0,0,1-1,1H3a1,1,0,0,1-1-1v-2A1.05,1.05,0,0,1,3,54H49a1,1,0,0,0,1-.94,1,1,0,0,0-1-1H22.54L20.4,49.2A3,3,0,0,0,18,48H10a2,2,0,0,0-2,2v2.06H4v-37A1.05,1.05,0,0,1,5,14H59a1.05,1.05,0,0,1,1,1.06v39h1a1,1,0,0,1,1,1ZM10,52V50h8a1,1,0,0,1,.8.4L20,52Z" />
  <path fill="#8d6c9f" d="M57 16a1 1 0 0 0-1 1v2a1 1 0 0 0 2 0V17A1 1 0 0 0 57 16zM53 19V17a1 1 0 0 0-2 0v2a1 1 0 0 0 2 0zM47 16a1 1 0 0 0-1 1v2a1 1 0 0 0 2 0V17A1 1 0 0 0 47 16zM42 20a1 1 0 0 0 1-1V17a1 1 0 0 0-2 0v2A1 1 0 0 0 42 20zM38 17a1 1 0 0 0-2 0v2a1 1 0 0 0 2 0zM32 20a1 1 0 0 0 1-1V17a1 1 0 0 0-2 0v2A1 1 0 0 0 32 20zM28 17a1 1 0 0 0-2 0v2a1 1 0 0 0 2 0zM22 20a1 1 0 0 0 1-1V17a1 1 0 0 0-2 0v2A1 1 0 0 0 22 20zM18 19V17a1 1 0 0 0-2 0v2a1 1 0 0 0 2 0zM12 16a1 1 0 0 0-1 1v2a1 1 0 0 0 2 0V17A1 1 0 0 0 12 16zM7 16a1 1 0 0 0-1 1v2a1 1 0 0 0 2 0V17A1 1 0 0 0 7 16zM57 52H53a1 1 0 0 0 0 2h4a1 1 0 0 0 0-2z" />
</svg>