<?xml version="1.0" encoding="utf-8"?>
<!-- Generator: Adobe Illustrator 25.4.1, SVG Export Plug-In . SVG Version: 6.00 Build 0)  -->
<svg version="1.1" id="Layer_1" xmlns="http://www.w3.org/2000/svg" xmlns:xlink="http://www.w3.org/1999/xlink" x="0px" y="0px"
	 viewBox="0 0 50 50" style="enable-background:new 0 0 50 50;" xml:space="preserve">
<style type="text/css">
	.st0{fill:#C5E4FA;}
	.st1{fill:#E3F2FF;}
	.st2{fill:#FFF7F0;}
	.st3{fill:#8D6C9F;}
</style>
<path class="st0" d="M7,5.5H43c0.9,0,1.6,0.7,1.6,1.6V43c0,0.9-0.7,1.6-1.6,1.6H7c-0.9,0-1.6-0.7-1.6-1.6V7C5.5,6.2,6.2,5.5,7,5.5z"
	/>
<path class="st1" d="M44.5,8.2L8.2,44.5h20.9l15.4-15.4V8.2z M34.6,5.5L5.5,34.7V43c0,0,0,0,0,0.1L43,5.5L34.6,5.5z M5.5,29.9
	L29.8,5.5h-1.4l-23,23V29.9z"/>
<path class="st2" d="M10.2,10.2H18V18h-7.8V10.2z M10.2,32H18v7.8h-7.8V32z M32,10.2h7.8V18H32V10.2z"/>
<path class="st3" d="M43,4.7H7c-1.3,0-2.3,1-2.3,2.3V43c0,1.3,1,2.3,2.3,2.3l0,0H43c1.3,0,2.3-1,2.3-2.3l0,0V7
	C45.3,5.7,44.3,4.7,43,4.7z M43.8,43c0,0.4-0.3,0.8-0.8,0.8H7c-0.4,0-0.8-0.3-0.8-0.8V7c0-0.4,0.3-0.8,0.8-0.8H43
	c0.4,0,0.8,0.3,0.8,0.8V43z"/>
<path class="st3" d="M25,37.5c-0.4,0-0.8,0.3-0.8,0.8v1.6c0,0.4,0.3,0.8,0.8,0.8s0.8-0.3,0.8-0.8v-1.6C25.8,37.8,25.4,37.5,25,37.5z
	 M21.1,37.5c-0.4,0-0.8,0.3-0.8,0.8v1.6c0,0.4,0.3,0.8,0.8,0.8s0.8-0.3,0.8-0.8v-1.6C21.9,37.8,21.5,37.5,21.1,37.5z M28.9,37.5
	c-0.4,0-0.8,0.3-0.8,0.8v1.6c0,0.4,0.3,0.8,0.8,0.8s0.8-0.3,0.8-0.8v-1.6C29.7,37.8,29.3,37.5,28.9,37.5z M32.8,37.5
	c-0.4,0-0.8,0.3-0.8,0.8v1.6c0,0.4,0.3,0.8,0.8,0.8s0.8-0.3,0.8-0.8v-1.6C33.6,37.8,33.2,37.5,32.8,37.5z M39.8,31.2
	c-0.4,0-0.8,0.3-0.8,0.8v1.6c0,0.4,0.3,0.8,0.8,0.8s0.8-0.3,0.8-0.8V32C40.6,31.6,40.3,31.2,39.8,31.2z M21.1,18.8
	c0.4,0,0.8-0.3,0.8-0.8v-1.6c0-0.4-0.3-0.8-0.8-0.8s-0.8,0.3-0.8,0.8V18C20.3,18.4,20.7,18.8,21.1,18.8z M10.2,21.9h1.6
	c0.4,0,0.8-0.3,0.8-0.8s-0.3-0.8-0.8-0.8h-1.6c-0.4,0-0.8,0.3-0.8,0.8S9.7,21.9,10.2,21.9z M10.2,25.8h1.6c0.4,0,0.8-0.3,0.8-0.8
	s-0.3-0.8-0.8-0.8h-1.6c-0.4,0-0.8,0.3-0.8,0.8S9.7,25.8,10.2,25.8z M27.3,10.9h1.6c0.4,0,0.8-0.3,0.8-0.8s-0.3-0.8-0.8-0.8h-1.6
	c-0.4,0-0.8,0.3-0.8,0.8S26.9,10.9,27.3,10.9z M10.2,29.7h1.6c0.4,0,0.8-0.3,0.8-0.8s-0.3-0.8-0.8-0.8h-1.6c-0.4,0-0.8,0.3-0.8,0.8
	S9.7,29.7,10.2,29.7z M18,28.1h-3.1c-0.4,0-0.8,0.3-0.8,0.8s0.3,0.8,0.8,0.8H18c0.4,0,0.8-0.3,0.8-0.8S18.4,28.1,18,28.1z"/>
<path class="st3" d="M39.8,20.3h-4.7c-0.4,0-0.8,0.3-0.8,0.8s0.3,0.8,0.8,0.8h3.9V25h-2.3c-0.4,0-0.8,0.3-0.8,0.8v2.3H32
	c-0.4,0-0.8,0.3-0.8,0.8v2.3h-1.6v-4.7H32c0.4,0,0.8-0.3,0.8-0.8v-3.1c0-0.4-0.3-0.8-0.8-0.8h-3.1c-0.4,0-0.8,0.3-0.8,0.8V25h-6.2
	v-3.1h3.9c0.4,0,0.8-0.3,0.8-0.8v-2.3h2.3c0.4,0,0.8-0.3,0.8-0.8v-4.7c0-0.4-0.3-0.8-0.8-0.8H25v-2.3c0-0.4-0.3-0.8-0.8-0.8h-3.1
	c-0.4,0-0.8,0.3-0.8,0.8v3.1c0,0.4,0.3,0.8,0.8,0.8h2.3v2.3c0,0.4,0.3,0.8,0.8,0.8s0.8-0.3,0.8-0.8v-2.3h3.1v3.1h-2.3
	c-0.4,0-0.8,0.3-0.8,0.8v2.3h-3.9c-0.4,0-0.8,0.3-0.8,0.8V25h-1.6v-2.3c0-0.4-0.3-0.8-0.8-0.8h-3.1c-0.4,0-0.8,0.3-0.8,0.8v3.1
	c0,0.4,0.3,0.8,0.8,0.8h5.5v2.3c0,0.4,0.3,0.8,0.8,0.8H25v1.6h-2.3c-0.4,0-0.8,0.3-0.8,0.8v3.1c0,0.4,0.3,0.8,0.8,0.8h3.1
	c0.4,0,0.8-0.3,0.8-0.8v-6.2c0-0.4-0.3-0.8-0.8-0.8h-3.9v-1.6h6.2v8.6c0,0.4,0.3,0.8,0.8,0.8H32c0.4,0,0.8-0.3,0.8-0.8v-2.3h3.1v7
	c0,0.4,0.3,0.8,0.8,0.8h3.1c0.4,0,0.8-0.3,0.8-0.8v-3.1c0-0.4-0.3-0.8-0.8-0.8h-2.3V32c0-0.4-0.3-0.8-0.8-0.8h-3.9v-1.6h7
	c0.4,0,0.8-0.3,0.8-0.8v-7.8C40.6,20.7,40.3,20.3,39.8,20.3z M21.9,10.9h1.6v1.6h-1.6V10.9z M15.6,23.4h1.6V25h-1.6V23.4z M25,34.4
	h-1.6v-1.6H25V34.4z M39.1,39.1h-1.6v-1.6h1.6V39.1z M29.7,23.4h1.6V25h-1.6V23.4z M31.2,34.4h-1.6v-1.6h1.6V34.4z M39.1,28.1h-1.6
	v-1.6h1.6V28.1z"/>
<path class="st3" d="M10.9,18.8h6.2c0.9,0,1.6-0.7,1.6-1.6v-6.2c0-0.9-0.7-1.6-1.6-1.6h-6.2c-0.9,0-1.6,0.7-1.6,1.6v6.2
	C9.4,18.1,10.1,18.8,10.9,18.8z M10.9,10.9h6.2v6.2h-6.2V10.9z M17.2,31.2h-6.2c-0.9,0-1.6,0.7-1.6,1.6v6.2c0,0.9,0.7,1.6,1.6,1.6
	h6.2c0.9,0,1.6-0.7,1.6-1.6v-6.2C18.8,31.9,18.1,31.2,17.2,31.2z M10.9,39.1v-6.2h6.2v6.2H10.9z"/>
<path class="st3" d="M13.3,34.4h1.6c0.4,0,0.8,0.3,0.8,0.8v1.6c0,0.4-0.3,0.8-0.8,0.8h-1.6c-0.4,0-0.8-0.3-0.8-0.8v-1.6
	C12.5,34.7,12.8,34.4,13.3,34.4z"/>
<path class="st3" d="M13.3,12.5h1.6c0.4,0,0.8,0.3,0.8,0.8v1.6c0,0.4-0.3,0.8-0.8,0.8h-1.6c-0.4,0-0.8-0.3-0.8-0.8v-1.6
	C12.5,12.8,12.8,12.5,13.3,12.5z"/>
<path class="st3" d="M35.2,12.5h1.6c0.4,0,0.8,0.3,0.8,0.8v1.6c0,0.4-0.3,0.8-0.8,0.8h-1.6c-0.4,0-0.8-0.3-0.8-0.8v-1.6
	C34.4,12.8,34.7,12.5,35.2,12.5z"/>
<path class="st3" d="M39.1,9.4h-6.2c-0.9,0-1.6,0.7-1.6,1.6v6.2c0,0.9,0.7,1.6,1.6,1.6h6.2c0.9,0,1.6-0.7,1.6-1.6v-6.2
	C40.6,10.1,39.9,9.4,39.1,9.4z M32.8,17.2v-6.2h6.2v6.2H32.8z"/>
<path class="st3" d="M0.9,7.1c0.5,0,0.9-0.4,0.9-0.9V1.8h4.5c0.5,0,0.9-0.4,0.9-0.9S6.7,0,6.2,0H0.9C0.4,0,0,0.4,0,0.9v5.4
	C0,6.7,0.4,7.1,0.9,7.1z M43.8,1.8h4.5v4.5c0,0.5,0.4,0.9,0.9,0.9S50,6.7,50,6.2V0.9C50,0.4,49.6,0,49.1,0h-5.4
	c-0.5,0-0.9,0.4-0.9,0.9S43.3,1.8,43.8,1.8z M6.2,48.2H1.8v-4.5c0-0.5-0.4-0.9-0.9-0.9S0,43.3,0,43.8v5.4C0,49.6,0.4,50,0.9,50h5.4
	c0.5,0,0.9-0.4,0.9-0.9S6.7,48.2,6.2,48.2z M49.1,42.9c-0.5,0-0.9,0.4-0.9,0.9v4.5h-4.5c-0.5,0-0.9,0.4-0.9,0.9s0.4,0.9,0.9,0.9h5.4
	c0.5,0,0.9-0.4,0.9-0.9v-5.4C50,43.3,49.6,42.9,49.1,42.9z"/>
</svg>
