<svg id="Layer_1" enable-background="new 0 0 512 512" height="512" viewBox="0 0 512 512" width="512" xmlns="http://www.w3.org/2000/svg"><path d="m242.378 448.55c-3.078 0-5.679-2.587-5.679-5.65v-243.42c0-3.063 2.601-5.65 5.679-5.65 3.063 0 5.65 2.587 5.65 5.65v243.42c0 3.062-2.588 5.65-5.65 5.65z" fill="#9bc4f9"/><path d="m329.601 448.81c-3.105-.089-5.63-2.744-5.556-5.798l6.558-243.323c.089-3.046 2.624-5.521 5.65-5.521l.155.002c2.014.058 3.338 1.14 3.947 1.781.605.637 1.611 2.004 1.553 4.008l-6.559 243.365c-.075 3.022-2.634 5.485-5.706 5.485-.001.001-.042.001-.042.001z" fill="#9bc4f9"/><path d="m409.915 199.169c-29.878 0-54.187-24.307-54.187-54.185s24.308-54.186 54.187-54.186 54.186 24.308 54.186 54.186-24.308 54.185-54.186 54.185z" fill="#ed1b24"/><path d="m155.037 448.811c-3.047 0-5.585-2.472-5.659-5.509l-6.558-243.312c-.074-3.069 2.436-5.731 5.48-5.818l.145-.003c3.058 0 5.605 2.472 5.679 5.51l6.559 243.345c.058 1.999-.948 3.367-1.552 4.004-.61.642-1.93 1.724-3.929 1.781z" fill="#9bc4f9"/><path d="m111.286 499.909c-8.989 0-16.409-7.054-16.892-16.06l-17.499-338.09 12.158-3.259h256.612l-.012 2.012-.012.472c0 32.746 24.524 60.198 57.044 63.855l1.871.21-14.223 274.8c-.461 9.004-7.881 16.059-16.893 16.059h-262.154zm224.991-315.828c-8.442 0-15.511 6.875-15.757 15.325l-6.56 243.348c-.21 8.645 6.67 15.888 15.338 16.141l.38.004c8.481 0 15.549-6.87 15.753-15.315l6.558-243.325c.123-4.195-1.412-8.19-4.321-11.253-2.897-3.05-6.809-4.797-11.016-4.92zm-188.256.005c-8.631.252-15.496 7.494-15.286 16.143l6.559 243.331c.205 8.459 7.286 15.338 15.785 15.338l.395-.005c4.173-.122 8.073-1.868 10.97-4.918 2.909-3.063 4.444-7.053 4.322-11.234l-6.559-243.32c-.209-8.602-7.174-15.337-15.857-15.337zm94.357-.344c-8.693 0-15.766 7.06-15.766 15.738v243.42c0 8.678 7.073 15.738 15.766 15.738 8.678 0 15.737-7.06 15.737-15.738v-243.42c0-8.678-7.059-15.738-15.737-15.738z" fill="#eaf2ff"/><path d="m48.602 121.499c-2.941-11.003 3.619-22.369 14.623-25.339l89.973-24.096c2.491-.667 4.073-3.092 3.68-5.641-3.672-23.816 11.101-46.475 34.362-52.706 4.014-1.075 8.136-1.62 12.254-1.62 19.557 0 36.768 11.807 43.847 30.08.747 1.928 2.637 3.223 4.703 3.223.439 0 .879-.059 1.307-.173l89.994-24.123c1.742-.465 3.531-.701 5.317-.701 3.603 0 7.183.969 10.354 2.801 4.799 2.773 8.223 7.223 9.641 12.532l5.363 19.961-320.055 85.763z" fill="#9bc4f9"/><path d="m147.981 182.087c-9.746.284-17.482 8.444-17.245 18.191v.019l6.558 243.317c.233 9.619 8.154 17.284 17.785 17.284.146 0 .294-.002.441-.005 4.716-.137 9.111-2.105 12.374-5.541 3.279-3.452 5.009-7.958 4.871-12.669l-6.558-243.316c-.238-9.766-8.379-17.477-18.226-17.28zm9.698 263.563c-.396.417-1.256 1.123-2.535 1.159-1.976.061-3.719-1.571-3.767-3.556l-6.558-243.317c-.048-1.984 1.587-3.709 3.538-3.766.029-.001.058-.002.087-.002 1.957 0 3.633 1.602 3.68 3.558l6.559 243.35c.038 1.281-.612 2.162-1.004 2.574zm252.236-366.94c-31.536 0-57.98 22.148-64.639 51.702h-203.385l240.132-64.346c1.805-.483 3.344-1.665 4.279-3.283.934-1.619 1.186-3.543.701-5.347l-6.671-24.829c-2.251-8.424-7.674-15.48-15.269-19.869-7.592-4.387-16.413-5.562-24.842-3.31l-84.219 22.575c-12.619-24.486-40.709-37.247-67.89-29.962-27.158 7.275-45.108 32.37-43.816 59.892l-84.196 22.549c-.003.001-.006.002-.009.003-17.433 4.695-27.825 22.698-23.164 40.14l6.673 24.838c.845 3.145 3.69 5.218 6.798 5.218.603 0 1.217-.078 1.827-.242l12.838-3.44 17.259 333.485c.828 15.428 13.55 27.513 28.963 27.513h262.156c15.451 0 28.173-12.093 28.964-27.526l14.159-273.548c33.432-3.346 59.624-31.64 59.624-65.939 0-36.543-29.73-66.274-66.273-66.274zm-354.537 60.3-4.844-18.031c-2.656-9.94 3.271-20.207 13.212-22.89l-.001.001 89.971-24.096c3.472-.93 5.687-4.326 5.139-7.877-3.516-22.805 10.629-44.502 32.903-50.469 22.292-5.967 45.387 5.744 53.719 27.252 1.299 3.354 4.919 5.189 8.392 4.259l89.994-24.124c4.79-1.279 9.817-.605 14.152 1.9 4.336 2.505 7.428 6.521 8.709 11.317l4.844 18.031zm332.958 344.737c-.407 7.942-6.95 14.163-14.895 14.163h-262.155c-7.926 0-14.469-6.229-14.895-14.167l-17.415-336.472 10.34-2.771h254.337c-.001.162-.012.322-.012.484 0 34.022 25.775 62.126 58.821 65.843zm21.579-286.578c-28.775 0-52.186-23.409-52.186-52.185s23.411-52.186 52.186-52.186c28.776 0 52.186 23.41 52.186 52.186s-23.411 52.185-52.186 52.185zm-167.537-15.427c-9.796 0-17.766 7.958-17.766 17.738v243.42c0 9.78 7.969 17.738 17.766 17.738 9.781 0 17.737-7.958 17.737-17.738v-243.42c0-9.78-7.957-17.738-17.737-17.738zm3.65 261.158c0 1.979-1.672 3.65-3.65 3.65-1.994 0-3.679-1.671-3.679-3.65v-243.42c0-1.979 1.685-3.65 3.679-3.65 1.979 0 3.65 1.671 3.65 3.65zm90.683-260.814c-.146-.003-.29-.005-.435-.005-9.552 0-17.476 7.651-17.756 17.266l-6.559 243.353c-.237 9.747 7.499 17.908 17.279 18.193.147.003.292.005.438.005 9.598 0 17.52-7.665 17.753-17.266l6.558-243.319c.138-4.728-1.592-9.232-4.87-12.684-3.263-3.436-7.658-5.404-12.408-5.543zm3.197 17.831-6.559 243.354c-.048 1.967-1.802 3.553-3.733 3.539-1.984-.057-3.62-1.783-3.572-3.749l6.558-243.318c.057-1.957 1.735-3.574 3.651-3.574.027 0 .055 0 .083.001 1.312.037 2.173.744 2.569 1.16.391.412 1.041 1.293 1.003 2.572z"/></svg>