<svg xmlns="http://www.w3.org/2000/svg" viewBox="0 0 64 64"><path fill="#c2cde7" d="M1.43,55.32V48a11.37,11.37,0,0,1,5.66-9.81l9.71-5.62c2.51,3.06,5.76,5.21,9.37,5.21S32,34.65,34.53,31.6l9,5L37,52l-4,4.35H2.46A1,1,0,0,1,1.43,55.32Z"/><path fill="#d6dff2" d="M36.28,37.86,26,43,15.72,37.86a3,3,0,0,1-.78-4.8L15,33H37l.06.06A3,3,0,0,1,36.28,37.86Z"/><path fill="#acb7d0" d="M37,52H5a4,4,0,0,0-4,4H1a1,1,0,0,0,1,1H33Z"/><path fill="#faefde" d="M13.07,24.13h0c-.31,0-1.31-.82-1.83-2.77s-.05-3.27.19-3.33c0,0,1.9-.33,1.92-.71a12.86,12.86,0,0,1,.18-1.63,6.09,6.09,0,0,0-.08-1.73,22.42,22.42,0,0,1-.13-5.44c.34-3.38,2.32-5.39,5.31-5.39a1.06,1.06,0,0,0,.63-.21A12.77,12.77,0,0,1,26,1h1.06c6.42,0,11,3.28,12.95,9.07-.73-.08-.49.43-1,.93s-1.78.7-1.3,2a12.8,12.8,0,0,1,1,4.31c0,.38,1.9-.29,1.92-.29.26.09.72,2.37.19,4.33s-1.52,2.77-1.83,2.77a1.09,1.09,0,0,0-1,.76c-1.78,6-6.44,12.05-11.92,12.05S15.86,30.87,14.08,24.88A1.06,1.06,0,0,0,13.07,24.13Z"/><path fill="#cda1a7" d="M13.45,14A7.47,7.47,0,0,0,20,9c3,1,4,4,18,3,1.39-.1,1.6.39,2,0s-.72-2,0-1.93C38.11,4.28,33.47,1,27.06,1H26a12.77,12.77,0,0,0-6.75,1.9,1.06,1.06,0,0,1-.63.21c-3,0-5,2-5.31,5.39a22.42,22.42,0,0,0,.13,5.44Z"/><path fill="#ffeb9b" d="M49 31A14 14 0 1 0 49 59A14 14 0 1 0 49 31Z"/><path fill="#f6d397" d="M40.92,53.08,57.08,36.92a2.32,2.32,0,0,1,3.57.31A14,14,0,0,1,41.23,56.65,2.32,2.32,0,0,1,40.92,53.08Z"/><path fill="#bbdef9" d="M49 35A10 10 0 1 0 49 55A10 10 0 1 0 49 35Z"/><path fill="#d2edff" d="M49 39A6 6 0 1 0 49 51A6 6 0 1 0 49 39Z"/><path fill="#f3f3f3" d="M45.78 39.56A2.22 2.22 0 1 0 45.78 44 2.22 2.22 0 1 0 45.78 39.56zM53.5 47.67A.83.83 0 1 0 53.5 49.33.83.83 0 1 0 53.5 47.67z"/><path fill="#cda1a7" d="M33.22 53.07H38.82V62.97H33.22z" transform="rotate(-135 36.024 58.02)"/><path fill="#8d6c9f" d="M31 50a1 1 0 0 0-1 1v2a1 1 0 0 0 2 0V51A1 1 0 0 0 31 50zM26 50a1 1 0 0 0-1 1v2a1 1 0 0 0 2 0V51A1 1 0 0 0 26 50zM21 50a1 1 0 0 0-1 1v2a1 1 0 0 0 2 0V51A1 1 0 0 0 21 50zM16 50a1 1 0 0 0-1 1v2a1 1 0 0 0 2 0V51A1 1 0 0 0 16 50zM11 50a1 1 0 0 0-1 1v2a1 1 0 0 0 2 0V51A1 1 0 0 0 11 50zM6 50a1 1 0 0 0-1 1v2a1 1 0 0 0 2 0V51A1 1 0 0 0 6 50zM21.92 10.88A21.1 21.1 0 0 0 31.11 13h2.55a1 1 0 0 0 0-2H31.11a19.1 19.1 0 0 1-8.32-1.92l-1.56-.76a2 2 0 0 0-2.55.7l-1.6 2.43a1 1 0 1 0 1.67 1.1l1.6-2.43zM26 44a1 1 0 0 0 .45-.11l6.15-3.08A1 1 0 1 0 31.7 39L26 41.88l-7.55-3.78a1 1 0 0 0-.89 1.79l8 4A1 1 0 0 0 26 44z"/><path fill="#8d6c9f" d="M49,30a14.92,14.92,0,0,0-9.34,3.28l-3.37-1.95A23.11,23.11,0,0,0,39,25.73c1.23-.46,2.35-2,2.88-4a7.49,7.49,0,0,0,.18-3.34,2.67,2.67,0,0,0-1.78-2.26,2,2,0,0,0-.43-.07,15.32,15.32,0,0,0-.92-3.44l0-.11a5.27,5.27,0,0,1,1.38.36,1,1,0,0,0,1.36-1.14C40,4.41,34.56,0,27,0H26a14.58,14.58,0,0,0-7.31,2C15,2.14,12.42,4.76,12,8.9a23,23,0,0,0,.13,5.6,7,7,0,0,1,.09,1q0,.28-.09.56a1.9,1.9,0,0,0-.44.07,2.67,2.67,0,0,0-1.78,2.26,7.49,7.49,0,0,0,.18,3.34c.54,2,1.66,3.5,2.88,4a23.11,23.11,0,0,0,2.72,5.6L6.49,36.67A13,13,0,0,0,0,47.92V55a3,3,0,0,0,3,3H30.57a3.82,3.82,0,0,0,6,4.71l4.59-4.59c.08-.08.26-.22.29-.2A15,15,0,1,0,49,30ZM13.77,23.88h0c-.29,0-1.24-.78-1.73-2.62a5.56,5.56,0,0,1-.15-2.42c.1-.51.29-.72.33-.73a.6.6,0,0,1,.27.12A1,1,0,0,0,14,17.43a12.17,12.17,0,0,1,.17-1.54,5.77,5.77,0,0,0-.08-1.64A21.21,21.21,0,0,1,14,9.1C14.31,5.91,16.19,4,19,4a1,1,0,0,0,.6-.2A12.09,12.09,0,0,1,26,2h1c6.07,0,10.45,3.1,12.25,8.58a2.3,2.3,0,0,0-1.9.48,2,2,0,0,0-.29,2.3,12.11,12.11,0,0,1,.9,4.07,1,1,0,0,0,1.54.79.63.63,0,0,1,.27-.12c.06,0,.24.23.34.73A5.56,5.56,0,0,1,40,21.26c-.49,1.84-1.44,2.62-1.73,2.62h0a1,1,0,0,0-1,.71C35.59,30.26,31.18,36,26,36s-9.59-5.74-11.28-11.4A1,1,0,0,0,13.77,23.88ZM2,55V47.92A11,11,0,0,1,7.49,38.4l9.42-5.45C19.34,35.91,22.5,38,26,38s6.66-2.09,9.09-5.06l3,1.76A14.91,14.91,0,0,0,36,52.42a2.37,2.37,0,0,1-.28.29L32.41,56H3A1,1,0,0,1,2,55Zm33.12,6.29a1.83,1.83,0,0,1-2.59-2.59l1-1h0l3.58-3.58a15.11,15.11,0,0,0,2.56,2.61ZM49,58A13,13,0,1,1,62,45,13,13,0,0,1,49,58Z"/><path fill="#8d6c9f" d="M48.91,34A10.91,10.91,0,1,0,59.83,44.91,10.93,10.93,0,0,0,48.91,34Zm0,19.83a8.91,8.91,0,1,1,8.91-8.91A8.92,8.92,0,0,1,48.91,53.83Z"/><path fill="#8d6c9f" d="M55.44,42.13a7.08,7.08,0,0,0-6.52-4.31,1,1,0,0,0,0,2,5.08,5.08,0,0,1,4.68,3.09,1,1,0,0,0,1.84-.79Z"/></svg>