<?xml version="1.0" standalone="no"?>
<!DOCTYPE svg PUBLIC "-//W3C//DTD SVG 20010904//EN"
 "http://www.w3.org/TR/2001/REC-SVG-20010904/DTD/svg10.dtd">
<svg version="1.0" xmlns="http://www.w3.org/2000/svg"
 width="710.000000pt" height="710.000000pt" viewBox="0 0 710.000000 710.000000"
 preserveAspectRatio="xMidYMid meet">

<g transform="translate(0.000000,710.000000) scale(0.100000,-0.100000)"
fill="#000000" stroke="none">
<path d="M3250 7073 c-119 -11 -338 -54 -555 -108 -263 -66 -427 -125 -670
-240 -66 -31 -131 -62 -145 -69 -14 -6 -27 -13 -30 -16 -5 -5 -13 -10 -89 -52
-20 -11 -48 -29 -63 -39 -14 -11 -30 -19 -35 -19 -4 0 -32 -18 -61 -40 -29
-22 -56 -40 -60 -40 -4 0 -14 -9 -22 -20 -8 -11 -22 -20 -31 -20 -10 0 -28
-12 -41 -27 -13 -16 -35 -34 -49 -42 -47 -28 -115 -88 -289 -261 -206 -205
-344 -356 -358 -391 -2 -5 -17 -23 -33 -40 -16 -17 -29 -36 -29 -43 0 -6 -9
-18 -20 -26 -11 -8 -20 -19 -20 -24 0 -5 -8 -19 -19 -30 -10 -12 -29 -41 -42
-66 -13 -25 -27 -47 -30 -50 -7 -6 -98 -163 -119 -205 -8 -16 -18 -32 -21 -35
-3 -3 -16 -27 -28 -55 -36 -78 -69 -147 -88 -180 -28 -52 -33 -64 -33 -85 0
-11 -4 -20 -10 -20 -5 0 -10 -13 -10 -30 0 -16 -4 -30 -10 -30 -5 0 -10 -9
-10 -20 0 -11 -4 -20 -10 -20 -5 0 -10 -11 -10 -24 0 -14 -4 -28 -10 -31 -5
-3 -10 -17 -10 -30 0 -13 -4 -27 -10 -30 -5 -3 -10 -19 -10 -35 0 -16 -4 -32
-10 -35 -5 -3 -10 -22 -10 -41 0 -19 -4 -34 -9 -34 -5 0 -11 -15 -14 -32 -3
-18 -10 -53 -16 -78 -16 -65 -26 -120 -49 -252 -11 -64 -23 -121 -26 -127 -14
-22 -25 -449 -15 -605 10 -176 44 -441 68 -541 6 -22 14 -60 20 -85 15 -69
111 -381 127 -414 8 -16 14 -35 14 -42 0 -7 9 -29 20 -49 11 -20 20 -40 20
-46 0 -15 63 -143 72 -147 4 -2 8 -9 8 -16 0 -16 62 -140 73 -144 4 -2 7 -9 7
-16 0 -17 29 -74 41 -81 5 -4 18 -25 29 -49 10 -23 26 -49 35 -56 8 -7 15 -18
15 -25 0 -6 9 -20 20 -30 11 -10 20 -23 20 -30 0 -7 9 -20 20 -30 11 -10 20
-23 20 -30 0 -6 14 -24 30 -40 17 -16 30 -34 30 -40 0 -7 9 -20 20 -30 11 -10
20 -23 20 -29 0 -7 23 -34 50 -61 28 -27 50 -54 50 -60 0 -6 90 -101 201 -210
240 -239 225 -225 236 -225 5 0 27 -18 48 -40 21 -22 44 -40 50 -40 6 0 24
-14 40 -30 16 -17 34 -30 40 -30 6 0 24 -13 40 -30 16 -16 34 -30 40 -30 7 0
20 -9 30 -20 10 -11 23 -20 30 -20 7 0 20 -9 30 -20 10 -11 23 -20 30 -20 7 0
20 -9 30 -20 10 -11 26 -20 37 -20 10 0 18 -4 18 -10 0 -5 6 -10 14 -10 7 0
19 -6 25 -14 16 -19 351 -186 373 -186 9 0 20 -4 23 -10 3 -5 15 -10 26 -10
10 0 19 -3 19 -7 0 -11 50 -33 71 -33 10 0 21 -4 24 -10 3 -5 17 -10 30 -10
13 0 27 -4 30 -10 3 -5 17 -10 30 -10 13 0 27 -4 30 -10 3 -5 17 -10 30 -10
13 0 27 -4 30 -10 3 -5 17 -10 30 -10 13 0 27 -4 30 -10 3 -5 21 -10 40 -10
19 0 37 -4 40 -10 3 -5 21 -10 40 -10 19 0 37 -4 40 -10 3 -5 21 -10 40 -10
19 0 37 -4 40 -10 3 -5 24 -10 46 -10 21 0 39 -4 39 -10 0 -5 24 -10 54 -10
30 0 58 -4 61 -10 3 -5 37 -10 76 -10 38 0 77 -4 87 -10 35 -20 358 -28 567
-14 263 18 334 25 341 35 3 5 32 9 64 9 32 0 62 4 65 10 3 5 24 10 45 10 21 0
42 4 45 10 3 5 20 10 37 10 34 0 108 19 123 32 5 4 24 8 41 8 18 0 36 5 39 10
3 6 17 10 30 10 13 0 27 5 30 10 3 6 15 10 26 10 10 0 27 4 37 9 9 5 37 15 62
22 25 7 50 16 55 19 6 4 26 12 45 19 154 56 592 283 613 318 5 7 12 11 16 8 5
-2 14 2 21 10 7 8 17 15 23 15 5 0 26 12 46 27 20 16 59 43 86 62 28 19 56 41
63 48 8 7 30 25 50 40 103 76 492 447 492 470 0 6 12 23 27 39 15 16 43 49 62
74 19 25 42 50 50 57 9 7 13 13 8 13 -6 0 37 61 83 117 6 7 10 14 10 17 0 9
103 161 112 164 4 2 8 9 8 17 0 17 47 100 65 115 8 7 15 21 15 31 0 11 5 19
10 19 6 0 10 7 10 15 0 15 19 55 31 65 3 3 16 32 29 65 13 33 36 87 50 120 15
33 33 78 40 100 7 22 20 56 30 75 9 19 22 55 29 80 7 25 17 53 22 62 5 10 9
31 9 48 0 16 4 30 9 30 5 0 11 15 14 33 3 17 10 52 17 77 35 134 61 274 80
425 5 39 14 97 19 130 17 96 15 470 -3 645 -17 166 -51 364 -66 392 -6 10 -10
34 -10 53 0 19 -4 35 -10 35 -5 0 -10 18 -10 40 0 22 -4 40 -10 40 -5 0 -10
15 -10 34 0 19 -4 38 -10 41 -5 3 -10 17 -10 30 0 13 -4 27 -10 30 -5 3 -10
19 -10 36 0 16 -4 29 -10 29 -5 0 -10 14 -10 30 0 17 -4 30 -10 30 -5 0 -10
14 -10 30 0 17 -4 30 -10 30 -5 0 -10 9 -10 20 0 11 -4 20 -10 20 -5 0 -10 14
-10 30 0 17 -4 30 -10 30 -5 0 -10 9 -10 20 0 11 -4 20 -10 20 -5 0 -10 9 -10
20 0 11 -4 20 -10 20 -5 0 -10 14 -10 30 0 17 -4 30 -10 30 -5 0 -10 9 -10 20
0 11 -4 20 -10 20 -5 0 -10 9 -10 20 0 11 -4 20 -10 20 -5 0 -10 6 -10 13 0
18 -24 67 -32 67 -5 0 -8 9 -8 20 0 11 -4 20 -10 20 -5 0 -10 7 -10 15 0 9 -9
25 -20 37 -11 12 -20 28 -20 35 0 7 -4 13 -10 13 -5 0 -10 8 -10 18 0 10 -9
24 -20 32 -11 8 -20 22 -20 32 0 10 -4 18 -10 18 -5 0 -10 9 -10 20 0 11 -4
20 -8 20 -5 0 -15 12 -23 28 -7 15 -26 39 -41 55 -16 15 -28 33 -28 40 0 7 -9
19 -20 27 -11 8 -20 20 -20 27 0 7 -13 27 -30 45 -16 17 -30 35 -30 39 0 5
-22 32 -50 61 -27 29 -50 57 -50 62 0 12 -385 396 -397 396 -5 0 -33 23 -62
50 -29 28 -57 50 -62 50 -5 0 -23 12 -40 27 -16 15 -54 43 -83 63 -30 20 -76
53 -104 73 -27 20 -55 37 -61 37 -6 0 -11 5 -11 10 0 6 -5 10 -11 10 -6 0 -30
14 -54 30 -24 17 -50 30 -58 30 -9 0 -17 4 -19 9 -5 13 -316 171 -338 171 -11
0 -20 5 -20 10 0 6 -6 10 -13 10 -7 0 -32 9 -55 20 -22 11 -48 20 -56 20 -8 0
-18 5 -21 10 -3 6 -15 10 -26 10 -10 0 -27 4 -37 9 -29 15 -272 91 -292 91
-10 0 -22 5 -25 10 -3 6 -18 10 -32 10 -14 0 -42 4 -62 10 -53 14 -243 48
-341 61 -79 10 -620 19 -700 12z m505 -103 c839 -54 1609 -398 2200 -985 518
-514 849 -1153 970 -1868 63 -376 59 -818 -11 -1197 -87 -474 -299 -969 -582
-1363 -224 -312 -549 -629 -857 -837 -492 -332 -1036 -526 -1628 -581 -257
-24 -677 -3 -937 46 -857 163 -1618 646 -2135 1355 -958 1316 -852 3137 253
4330 201 218 384 374 627 535 429 286 887 461 1404 536 240 35 454 44 696 29z"/>
<path d="M3303 6733 c4 -58 7 -139 7 -180 l0 -73 35 0 36 0 -7 115 c-4 66 -3
115 2 115 5 0 45 -52 89 -115 74 -107 82 -115 112 -115 l33 0 0 134 c0 73 -3
154 -6 180 -6 42 -9 46 -35 46 l-28 0 -3 -117 -3 -118 -83 118 c-80 113 -84
117 -119 117 l-36 0 6 -107z"/>
<path d="M3831 6819 c-104 -42 -149 -152 -102 -255 52 -114 220 -150 315 -66
19 17 55 87 56 108 0 6 -26 14 -57 18 -32 4 -75 9 -95 13 -37 5 -38 5 -38 -25
0 -30 2 -32 50 -38 28 -4 50 -11 50 -15 0 -15 -63 -49 -89 -49 -39 0 -105 37
-124 69 -59 99 34 213 149 182 22 -6 51 -22 64 -36 l23 -24 30 21 30 22 -36
31 c-57 50 -161 70 -226 44z"/>
<path d="M3004 6802 l-31 -3 -37 -172 c-20 -95 -39 -180 -42 -189 -4 -14 0
-18 18 -18 33 0 45 11 55 49 10 38 21 43 114 55 53 7 55 6 72 -24 15 -24 25
-30 54 -30 28 0 34 3 29 16 -9 24 -177 298 -190 309 -6 6 -25 9 -42 7z m61
-158 c15 -25 24 -48 21 -51 -3 -3 -25 -8 -50 -10 -43 -5 -45 -5 -39 18 26 114
26 114 68 43z"/>
<path d="M4185 6600 c-41 -182 -40 -194 10 -188 16 3 23 16 34 71 8 37 17 67
21 67 4 0 23 -36 41 -80 37 -90 41 -95 86 -103 l32 -6 -35 82 c-20 45 -42 96
-49 114 l-13 32 80 62 c68 53 78 64 62 70 -39 16 -66 8 -121 -36 -31 -24 -59
-42 -61 -40 -2 2 1 27 7 56 6 28 10 53 8 55 -2 2 -17 6 -33 10 l-30 6 -39
-172z"/>
<path d="M2435 6657 c-16 -5 -31 -11 -33 -12 -5 -4 -33 -378 -29 -382 2 -1 18
2 35 8 28 10 32 15 32 49 l0 38 77 26 77 26 25 -31 c22 -25 31 -29 54 -24 15
4 29 10 31 14 3 5 -220 283 -238 297 0 1 -14 -3 -31 -9z m88 -203 c-70 -29
-73 -28 -73 9 0 19 3 49 7 68 l6 33 44 -49 44 -50 -28 -11z"/>
<path d="M4570 6493 c-69 -74 -126 -138 -128 -142 -1 -4 10 -12 25 -17 25 -10
32 -7 59 18 l31 29 74 -28 74 -28 3 -41 c2 -33 8 -44 28 -53 14 -6 27 -11 29
-11 3 0 5 87 5 194 l0 194 -31 11 c-18 6 -35 11 -38 10 -3 0 -62 -61 -131
-136z m126 -90 c-6 -6 -74 16 -80 26 -3 4 14 29 37 56 l42 49 3 -63 c2 -35 1
-65 -2 -68z"/>
<path d="M2088 6514 c-33 -17 -33 -16 -9 -166 10 -65 16 -118 14 -118 -1 0
-46 40 -99 90 l-96 89 -29 -15 c-16 -8 -29 -17 -29 -20 0 -8 101 -327 107
-336 2 -5 17 -1 33 7 l28 15 -34 106 c-19 58 -34 108 -32 109 2 2 42 -32 90
-76 81 -75 88 -79 112 -68 31 14 30 6 10 131 -8 54 -14 103 -12 109 2 6 33
-26 68 -72 35 -46 65 -86 67 -88 2 -3 17 2 34 10 l31 15 -112 144 c-62 80
-113 146 -114 147 -1 1 -13 -5 -28 -13z"/>
<path d="M4984 6476 c-52 -23 -59 -64 -28 -150 37 -101 40 -122 18 -134 -30
-15 -64 3 -70 38 -6 26 -11 30 -40 30 -29 0 -34 -4 -34 -22 0 -56 69 -118 130
-118 51 0 100 49 100 100 0 11 -14 54 -30 96 -17 42 -29 83 -26 91 10 24 46
14 64 -17 14 -25 21 -29 42 -24 35 8 36 10 17 49 -28 59 -89 85 -143 61z"/>
<path d="M3255 6360 c-793 -88 -1490 -480 -1963 -1104 -291 -384 -475 -824
-550 -1319 -25 -163 -24 -626 1 -787 78 -499 254 -922 542 -1305 455 -604
1106 -987 1870 -1102 185 -27 600 -24 794 5 546 85 1038 314 1451 676 1057
928 1265 2512 483 3690 -201 303 -485 586 -791 789 -349 232 -731 377 -1166
443 -119 18 -551 27 -671 14z m-77 -336 c19 -5 22 -13 22 -51 0 -39 -2 -44
-17 -38 -34 14 -110 17 -132 5 -42 -22 -23 -51 59 -92 41 -20 82 -47 92 -60
23 -30 24 -106 2 -137 -37 -52 -154 -76 -246 -50 -37 10 -38 11 -38 59 l0 49
43 -19 c70 -32 147 -22 147 19 0 24 -16 37 -88 71 -74 35 -102 69 -102 124 0
52 21 83 74 107 41 18 137 25 184 13z m284 -51 c9 -27 31 -92 50 -146 l35 -99
48 134 c26 73 50 139 52 146 4 8 29 12 79 12 l74 0 0 -210 0 -210 -50 0 -50 0
0 158 -1 157 -56 -158 -57 -158 -44 3 -45 3 -51 140 -51 140 -3 -142 -3 -143
-49 0 -50 0 0 210 0 210 78 0 78 0 16 -47z m727 -101 c30 -81 64 -175 77 -209
l24 -63 -59 0 -58 0 -13 45 -13 45 -78 0 -78 0 -11 -41 c-13 -46 -21 -51 -83
-47 l-45 3 74 195 c41 107 76 201 79 208 3 8 26 12 67 12 l63 0 54 -148z
m-402 -397 c305 -40 601 -150 853 -315 101 -67 240 -177 240 -191 0 -5 -9 -13
-21 -19 -23 -13 -14 -19 -151 86 -118 90 -206 144 -336 207 -134 64 -159 67
-245 27 -78 -35 -78 -23 0 -122 63 -81 150 -229 204 -348 64 -144 66 -153 35
-173 l-25 -17 -16 53 c-45 137 -204 412 -296 509 l-44 46 -125 -28 c-69 -16
-160 -32 -202 -35 l-77 -7 -3 -41 c-3 -36 -6 -41 -30 -44 -27 -4 -28 -2 -28
40 l0 43 -112 13 c-62 6 -156 23 -208 36 l-95 24 -38 -42 c-93 -102 -247 -370
-291 -504 -18 -55 -25 -60 -56 -43 -16 9 -17 15 -8 47 27 101 194 400 283 506
19 23 34 47 33 52 -1 6 -35 24 -77 41 l-76 32 -45 -18 c-194 -77 -317 -153
-546 -333 -18 -14 -27 -15 -51 -6 l-28 11 57 52 c217 198 585 378 901 440 193
38 429 46 624 21z m-2002 -137 c164 -368 408 -645 744 -849 56 -34 104 -65
107 -70 3 -5 -9 -34 -27 -65 l-32 -56 -43 6 c-130 17 -401 200 -584 393 -245
258 -343 524 -261 711 13 29 28 51 34 49 6 -2 34 -55 62 -119z m3617 80 c115
-241 -87 -626 -487 -926 -127 -95 -290 -182 -356 -189 l-45 -5 -32 63 -32 63
57 31 c214 115 432 303 577 497 83 111 177 273 231 399 27 60 53 108 59 106 6
-2 19 -20 28 -39z m-1667 -408 c22 -5 49 -20 61 -33 20 -23 24 -24 75 -15 138
25 204 -29 148 -121 -16 -27 -24 -32 -42 -26 -50 16 -86 16 -116 1 -17 -9 -31
-20 -31 -25 0 -14 47 -22 90 -15 35 6 40 4 40 -13 0 -49 -74 -103 -141 -103
-64 0 -74 -50 -29 -140 17 -33 30 -68 30 -79 0 -10 9 -38 20 -62 22 -50 26
-89 8 -89 -7 0 -28 9 -46 20 -40 25 -39 25 -46 -5 -8 -33 -23 -32 -63 7 -30
29 -33 30 -33 11 0 -58 -29 -70 -57 -23 -22 38 -37 38 -53 0 -15 -37 -30 -35
-49 8 -8 18 -18 32 -22 32 -4 0 -16 -16 -28 -35 -11 -19 -25 -35 -30 -35 -6 0
-15 19 -21 41 l-12 42 -29 -37 c-38 -45 -59 -47 -59 -6 0 33 -11 38 -31 14
-19 -23 -60 -37 -72 -25 -6 6 -4 29 6 63 20 69 35 170 42 281 3 49 15 116 26
150 20 60 20 61 1 76 -27 22 -42 54 -42 90 0 39 12 45 49 26 40 -20 88 -19
207 5 167 33 188 34 249 20z m-1460 -138 c95 -53 251 -155 321 -210 42 -33 52
-48 72 -108 12 -39 22 -73 22 -77 0 -27 -143 28 -260 101 -90 55 -259 221
-318 311 -23 35 -42 67 -42 72 0 11 105 -35 205 -89z m2730 49 c-8 -17 -49
-70 -89 -118 -110 -132 -215 -214 -366 -287 -145 -71 -161 -63 -117 59 l22 59
160 108 c161 109 397 237 403 219 2 -5 -4 -23 -13 -40z m-3157 -132 c218 -268
429 -430 650 -500 72 -23 73 -24 68 -52 -3 -16 -6 -47 -6 -68 l0 -39 -46 0
c-138 0 -358 104 -529 249 -181 154 -302 383 -280 529 5 37 9 42 19 31 7 -8
63 -75 124 -150z m3542 88 c0 -186 -127 -385 -350 -551 -163 -122 -334 -196
-452 -196 l-47 0 -6 48 c-12 88 -13 85 30 100 226 82 331 147 497 309 64 64
161 171 214 239 54 68 101 121 106 118 4 -3 8 -33 8 -67z m-2619 -335 c63 -41
137 -127 173 -202 28 -59 31 -74 31 -160 0 -92 -2 -99 -58 -238 -32 -79 -67
-185 -79 -235 -11 -51 -24 -96 -29 -101 -20 -23 -155 217 -189 338 -53 189
-23 372 81 491 27 30 30 40 25 71 -4 19 -10 42 -13 50 -8 21 8 17 58 -14z
m1609 14 c0 -7 -5 -27 -11 -44 -9 -28 -7 -35 35 -91 73 -100 90 -155 91 -296
0 -106 -3 -130 -29 -207 -27 -85 -105 -232 -156 -298 l-26 -33 -30 124 c-17
68 -52 173 -77 232 -60 140 -74 213 -58 298 22 112 94 221 189 290 59 42 72
47 72 25z m-2710 -21 c8 -10 11 -38 8 -84 -3 -61 -7 -73 -37 -107 -19 -21 -42
-57 -53 -80 l-18 -42 -40 15 -41 16 7 60 c4 34 7 74 8 91 1 24 14 40 71 87 39
32 73 58 76 59 4 0 12 -7 19 -15z m3839 -37 c82 -65 81 -63 81 -118 0 -25 4
-62 9 -83 8 -35 7 -38 -19 -52 -45 -23 -58 -18 -84 34 -14 26 -36 62 -50 79
-23 26 -26 39 -26 104 0 67 4 88 18 88 2 0 34 -24 71 -52z m-3405 -237 c124
-81 248 -134 343 -146 119 -15 108 -6 122 -90 7 -41 9 -80 5 -86 -12 -20 -179
-4 -269 26 -297 97 -544 359 -501 531 7 26 10 24 115 -79 59 -58 143 -128 185
-156z m3185 187 c-3 -54 -11 -88 -31 -129 -69 -140 -324 -321 -524 -373 -63
-16 -209 -22 -217 -8 -9 14 21 155 34 163 8 5 32 9 54 9 58 0 179 36 260 76
92 47 236 157 333 255 42 43 81 79 86 79 4 0 7 -33 5 -72z m-3506 -132 c7 -22
1 -47 -32 -132 -41 -104 -51 -154 -30 -154 6 0 35 -7 65 -16 54 -15 65 -31 46
-62 -7 -10 -18 -9 -58 3 -91 27 -88 31 -114 -107 -13 -68 -25 -165 -28 -215
l-4 -93 76 0 76 0 0 -30 0 -30 -77 0 -76 0 6 -98 c6 -89 42 -321 52 -330 2 -3
34 3 71 12 55 14 69 15 75 4 21 -33 9 -45 -60 -63 -77 -20 -74 -11 -39 -125
30 -95 106 -248 191 -385 76 -121 79 -134 31 -135 -16 0 -36 26 -86 108 -201
330 -283 604 -295 992 -9 294 38 549 149 818 32 76 45 85 61 38z m3582 -20
c107 -242 177 -622 161 -871 -26 -377 -129 -699 -319 -993 -46 -70 -64 -83
-95 -63 -10 6 0 29 43 95 93 144 208 391 229 491 l7 31 -71 18 c-69 18 -71 20
-65 45 4 14 8 27 9 28 1 1 34 -6 73 -16 l71 -19 11 42 c18 69 30 151 36 248 4
51 8 103 11 116 4 18 0 25 -16 29 -28 8 -29 63 0 63 16 0 19 5 15 28 -2 15 -7
69 -10 121 -7 110 -32 262 -45 275 -6 6 -34 4 -76 -6 l-65 -16 -10 25 c-5 13
-9 26 -9 27 0 2 32 12 70 22 49 13 70 22 70 33 -1 9 -20 67 -44 130 -37 98
-41 119 -32 143 6 15 14 28 19 28 4 0 19 -24 32 -54z m-1971 -11 c4 -14 13
-28 20 -31 22 -9 -10 -114 -34 -114 -6 0 -10 -19 -10 -42 0 -64 -46 -103 -70
-59 -5 11 -10 37 -11 58 0 35 -1 36 -10 13 -14 -35 -39 -60 -61 -60 -14 0 -18
8 -18 36 l0 35 -26 -20 c-50 -39 -75 -19 -54 44 12 37 19 42 37 24 8 -8 13 -7
18 2 5 7 4 10 -2 6 -20 -13 -32 17 -23 57 11 51 26 65 43 42 12 -17 14 -17 20
-2 10 24 27 19 27 -8 0 -14 -12 -39 -27 -58 -15 -18 -19 -26 -9 -18 18 14 18
13 11 -10 -7 -24 -7 -24 9 -5 16 20 16 20 22 -2 8 -29 45 -30 62 -3 17 27 32
25 32 -5 0 -14 4 -25 9 -25 4 0 4 22 -1 48 -15 74 29 165 46 97z m316 -34 c14
-50 13 -84 -4 -106 -12 -17 -16 -18 -32 -5 -16 13 -16 12 1 -11 l20 -26 17 23
c10 12 18 32 18 45 l0 22 25 -23 c14 -13 25 -31 25 -39 1 -13 2 -13 11 2 6 9
14 15 20 12 5 -4 9 5 9 19 0 30 0 29 36 16 l26 -10 -30 34 c-47 54 -56 99 -14
77 13 -7 22 -7 31 2 15 15 26 -1 43 -58 6 -22 18 -48 26 -57 8 -9 15 -31 15
-49 2 -42 -22 -50 -54 -18 l-22 22 7 -29 c4 -16 8 -29 9 -29 1 0 13 -9 27 -20
l25 -20 -17 21 c-24 28 -22 35 6 24 17 -6 26 -5 29 3 6 18 37 -11 54 -50 28
-69 9 -118 -31 -78 -13 13 -15 12 -18 -12 -4 -35 -30 -41 -57 -14 l-21 21 0
-34 c0 -19 -4 -38 -10 -41 -20 -12 -65 20 -77 55 l-12 35 0 -42 c-1 -23 -7
-48 -15 -56 -9 -9 -11 -19 -5 -28 7 -11 9 -11 9 4 0 10 6 20 14 23 9 3 12 12
8 22 -4 13 1 11 22 -6 16 -12 36 -22 45 -22 10 0 21 -4 27 -10 6 -6 9 5 7 33
-2 23 0 36 3 29 3 -6 10 -10 14 -7 5 3 18 -3 29 -14 20 -20 20 -20 26 10 7 32
7 32 30 23 27 -11 51 -71 46 -121 -1 -18 -31 -16 -53 4 -17 15 -18 15 -18 -10
0 -29 -26 -37 -48 -15 -9 9 -12 7 -12 -10 0 -30 -24 -38 -54 -19 -23 15 -24
15 -30 -14 -3 -17 -12 -29 -21 -29 -24 0 -65 30 -66 49 0 9 -7 2 -15 -16 -19
-44 -27 -46 -65 -20 -43 29 -53 88 -20 109 12 7 21 19 21 27 0 11 -5 10 -20
-4 -17 -15 -22 -16 -37 -4 -15 11 -16 11 -5 -1 6 -8 12 -33 12 -57 0 -104 -65
-138 -100 -53 -15 37 -21 37 -42 0 -10 -17 -24 -33 -33 -36 -23 -9 -52 22 -60
63 -6 36 -7 36 -18 12 -7 -13 -24 -30 -39 -38 -22 -13 -29 -13 -42 -2 -9 7
-16 22 -16 33 0 19 -1 19 -26 -1 -40 -31 -71 -28 -79 9 -6 25 -9 28 -25 20
-35 -19 -50 -12 -50 23 -1 26 -2 29 -11 15 -5 -10 -17 -18 -24 -18 -18 0 -20
62 -4 109 12 34 19 37 37 19 15 -15 15 -3 0 21 -20 32 6 99 40 107 15 3 35 9
45 15 20 11 21 6 7 -21 -8 -15 -7 -18 3 -14 8 3 17 -2 21 -11 5 -15 9 -14 34
4 32 23 43 18 66 -26 17 -34 36 -44 36 -20 0 16 34 50 42 42 3 -4 3 14 1 39
-5 39 -2 48 21 71 26 26 28 26 42 9 13 -17 13 -16 4 9 -21 60 -6 127 29 127
17 0 41 -37 41 -62 0 -15 41 -100 46 -96 2 2 -4 25 -14 50 -12 36 -14 53 -6
75 6 15 16 27 22 26 7 -2 12 2 12 9 0 8 7 6 18 -5 13 -13 17 -34 17 -81 0 -35
3 -62 8 -59 4 2 7 11 7 20 0 13 2 13 17 2 15 -13 15 -12 6 6 -6 11 -13 32 -17
47 -5 21 -2 28 14 33 13 4 20 15 20 32 0 21 2 23 15 13 8 -7 19 -29 25 -49z
m-416 24 c4 -17 11 -23 23 -18 14 5 15 1 9 -27 -11 -56 -56 -91 -70 -54 -10
25 -7 71 6 99 14 32 24 32 32 0z m504 -10 c15 -32 16 -102 2 -110 -20 -13 -56
32 -75 93 -6 21 -5 23 13 13 17 -9 22 -8 27 9 9 27 19 25 33 -5z m-2250 -77
c17 -11 32 -21 32 -22 0 -2 -9 -29 -20 -62 -69 -198 -101 -388 -107 -630 -8
-288 21 -492 104 -729 60 -173 54 -179 -17 -18 -82 186 -135 369 -166 568 -22
148 -23 488 -1 637 15 100 52 261 64 281 8 13 73 -2 111 -25z m4127 -20 c56
-191 80 -536 54 -789 -22 -221 -95 -489 -184 -677 -25 -52 -47 -93 -49 -91 -2
2 16 63 40 134 71 205 114 462 114 669 0 192 -44 476 -101 654 -35 107 -33
112 37 137 65 23 72 20 89 -37z m-505 -64 c0 -122 -192 -286 -434 -369 -130
-44 -316 -71 -329 -47 -2 4 18 52 44 108 l48 101 108 7 c179 12 314 69 477
200 74 60 86 60 86 0z m-3128 -24 c159 -121 270 -164 459 -176 l95 -7 47 -101
c26 -55 47 -104 47 -108 0 -17 -132 -7 -222 16 -317 80 -538 246 -538 403 0
24 4 43 10 43 5 0 51 -31 102 -70z m391 -398 c48 -12 134 -25 190 -29 l104 -6
27 -41 c15 -23 38 -56 52 -75 13 -19 24 -38 24 -42 0 -12 -222 -11 -299 2
-194 31 -323 116 -397 261 -19 37 -34 69 -34 72 0 2 55 -24 123 -58 75 -39
155 -71 210 -84z m2531 67 c-36 -65 -120 -150 -187 -188 -101 -57 -176 -73
-355 -79 l-164 -4 13 23 c6 13 32 52 56 87 l45 62 63 0 c146 0 333 52 475 133
86 50 96 44 54 -34z m346 -90 c73 -41 105 -154 60 -212 -30 -38 -152 -97 -200
-97 -22 0 -40 -2 -40 -3 0 -2 7 -18 16 -36 26 -52 28 -102 5 -137 -15 -25 -38
-39 -102 -64 -78 -30 -105 -33 -150 -15 -14 5 -17 -4 -21 -60 -3 -55 -8 -70
-31 -93 -26 -26 -32 -27 -113 -25 -53 1 -96 8 -116 17 -17 9 -35 16 -39 16 -4
0 -15 -22 -24 -50 -20 -60 -63 -100 -108 -100 -51 0 -158 45 -193 80 -31 30
-36 32 -141 41 -60 4 -158 18 -218 30 -132 25 -227 22 -299 -10 l-49 -21 -43
21 c-70 34 -165 35 -347 5 -87 -14 -180 -26 -207 -26 -27 0 -54 -6 -59 -12
-81 -101 -109 -118 -189 -118 -53 0 -112 16 -112 31 0 11 79 89 91 89 5 0 9 4
9 9 0 5 -19 11 -42 13 -39 5 -47 1 -82 -33 -69 -69 -152 -76 -259 -24 l-57 28
21 23 c20 21 34 29 104 55 l30 11 -37 19 -37 19 -53 -25 c-64 -30 -102 -31
-162 -5 -49 21 -146 104 -146 126 0 13 80 34 133 34 l32 0 -25 25 c-14 13 -56
46 -95 72 -83 57 -129 120 -145 200 -12 56 -10 157 3 170 16 15 65 -27 123
-106 80 -109 114 -175 123 -247 7 -49 14 -63 42 -87 19 -15 42 -33 51 -38 19
-10 19 -9 -16 73 -10 22 -16 66 -16 107 l0 70 30 -11 c49 -17 136 -103 156
-153 16 -43 16 -107 -1 -161 -6 -18 1 -24 50 -42 31 -12 58 -22 60 -22 2 0
-12 25 -30 56 -28 47 -55 127 -55 164 0 17 39 11 83 -11 100 -52 134 -95 143
-187 l7 -61 41 -5 c22 -3 55 -7 73 -9 l32 -3 -47 45 c-67 65 -109 160 -64 148
9 -3 38 -8 63 -12 88 -11 169 -91 169 -164 0 -23 1 -23 73 -17 39 4 140 19
222 33 167 28 236 26 317 -9 l48 -20 52 22 c76 33 146 36 273 11 110 -20 266
-41 317 -41 21 0 32 8 43 30 9 17 28 36 43 43 15 6 43 24 63 40 21 16 55 31
78 34 38 5 44 3 86 -39 37 -37 45 -42 45 -25 0 11 17 36 38 56 21 20 46 49 56
64 40 63 109 67 184 11 32 -25 34 -25 28 -6 -4 12 -1 33 8 49 8 16 17 51 22
78 5 35 15 58 36 79 27 27 33 28 93 24 63 -6 64 -5 55 18 -6 15 -4 47 5 91 8
37 15 78 15 89 0 26 35 73 64 84 40 17 117 11 156 -11z m-2204 -118 c3 -38 9
-73 13 -78 3 -5 32 -15 64 -22 36 -8 57 -17 54 -24 -3 -10 -64 -50 -90 -59 -4
-2 4 -43 18 -93 13 -49 22 -91 20 -93 -8 -8 -44 43 -40 56 4 12 -40 128 -57
147 -4 5 -8 -3 -8 -19 0 -15 14 -48 31 -72 17 -25 29 -48 26 -50 -2 -3 -17 16
-32 41 -19 33 -32 45 -43 42 -10 -3 -37 -13 -61 -22 -24 -9 -46 -14 -48 -11
-3 3 9 30 27 60 34 61 35 59 -23 129 -22 26 -38 50 -34 53 3 3 27 -4 52 -15
62 -27 72 -26 79 7 30 123 41 128 52 23z m929 4 c3 -25 10 -47 16 -50 5 -4 34
3 64 14 30 11 55 17 55 12 0 -5 -20 -33 -45 -62 l-45 -52 32 -58 c18 -32 30
-61 27 -64 -3 -3 -32 5 -65 17 -58 23 -59 24 -54 56 l5 33 34 -35 c46 -47 56
-46 31 4 -15 30 -26 40 -45 40 -20 0 -30 -11 -55 -61 -17 -33 -36 -72 -41 -86
-9 -24 -8 -25 8 -12 16 13 16 11 -1 -16 -39 -62 -46 -70 -46 -55 0 9 9 48 20
88 11 39 20 78 20 85 0 7 -20 23 -45 35 -69 33 -61 52 28 68 44 7 42 4 58 103
10 64 13 72 24 57 7 -9 16 -37 20 -61z m-455 -36 l23 -91 98 7 c71 5 99 4 99
-4 0 -6 -28 -29 -62 -50 -108 -67 -102 -56 -69 -136 37 -92 44 -115 34 -115
-4 0 -41 27 -82 60 -83 68 -62 71 -172 -19 -67 -54 -72 -42 -28 63 37 89 38
86 -62 146 -38 22 -69 45 -69 51 0 6 35 7 99 3 l99 -7 12 44 c28 112 41 149
49 144 5 -2 19 -46 31 -96z m-1105 -42 c22 -5 112 -13 200 -16 l159 -6 23 -34
c31 -46 29 -55 -14 -83 -33 -20 -51 -23 -138 -23 -93 0 -105 2 -166 32 -40 20
-85 53 -113 82 -69 75 -65 78 49 48z m2235 11 c0 -41 -115 -132 -204 -161 -75
-26 -180 -22 -243 8 -29 13 -53 27 -53 30 0 3 6 20 13 38 24 56 35 60 170 59
85 -1 150 4 212 17 50 10 93 19 98 20 4 0 7 -4 7 -11z m-1813 -209 c-10 -75
-67 -110 -146 -89 -40 10 -111 63 -111 81 0 5 30 9 68 9 39 1 88 8 117 19 76
28 78 27 72 -20z m1097 16 c-9 -14 -18 -25 -21 -25 -5 0 5 18 20 38 17 22 18
13 1 -13z m283 0 c31 -8 83 -15 115 -15 60 0 67 -5 46 -32 -46 -59 -164 -78
-213 -35 -15 13 -28 37 -32 60 -7 44 -3 45 84 22z m-551 -555 c202 -36 450
-127 746 -276 266 -134 469 -216 628 -257 69 -17 114 -21 235 -21 183 1 205 8
205 63 0 23 5 41 14 44 7 3 53 8 103 12 101 8 135 -3 203 -66 l35 -33 -80 -18
c-44 -10 -121 -21 -172 -24 l-92 -7 -3 -56 c-3 -54 -4 -55 -38 -63 -19 -4 -87
-11 -150 -14 -228 -13 -395 39 -865 266 -500 241 -672 295 -945 295 -270 0
-451 -56 -925 -285 -472 -228 -665 -288 -895 -277 -63 3 -132 11 -152 17 -38
11 -38 11 -38 64 l0 54 -97 7 c-107 7 -233 32 -233 45 0 12 65 67 102 86 25
13 48 15 117 9 129 -10 129 -10 133 -58 3 -41 5 -42 48 -54 65 -17 225 -15
321 3 179 34 329 93 745 292 330 158 478 213 669 247 87 16 301 19 381 5z
m-595 -293 c-32 -56 -33 -75 -3 -110 11 -12 24 -16 46 -11 24 4 36 0 50 -15
17 -19 17 -20 -6 -32 -13 -7 -47 -13 -75 -13 -29 -1 -53 -4 -53 -7 0 -4 -10
-9 -22 -12 -54 -14 -92 -159 -57 -216 l19 -31 -28 0 c-16 0 -32 3 -36 7 -6 6
-29 11 -66 14 -31 3 -40 22 -40 80 0 48 6 70 36 124 20 37 47 71 60 77 25 12
60 57 56 72 -2 4 1 13 6 20 6 6 13 25 17 43 5 28 13 34 63 51 31 11 59 18 61
16 2 -1 -11 -27 -28 -57z m923 -3 c4 -16 12 -37 17 -46 5 -10 9 -24 9 -32 0
-14 64 -76 79 -76 14 0 81 -155 81 -187 0 -43 -19 -82 -39 -81 -9 0 -27 -4
-40 -8 -19 -6 -22 -4 -16 7 5 8 0 7 -12 -3 -11 -10 -32 -18 -47 -18 l-27 0 20
26 c41 52 3 201 -58 226 -14 6 -30 10 -34 9 -23 -5 -127 23 -127 34 0 21 29
38 56 32 70 -13 89 51 40 135 l-27 46 58 -18 c48 -15 59 -22 67 -46z m-551
-115 c27 -7 53 -7 91 1 65 13 167 -5 242 -43 66 -34 190 -87 203 -87 22 0 41
-46 41 -100 0 -100 -24 -102 -185 -19 -290 149 -395 149 -687 3 -70 -35 -139
-64 -153 -64 -37 0 -50 35 -39 106 l9 58 110 46 c61 25 129 55 153 68 35 19
87 31 167 41 6 0 27 -4 48 -10z m-661 -215 c-2 -17 4 -49 13 -71 15 -39 18
-41 62 -41 52 -1 62 -7 44 -25 -7 -7 -51 -13 -116 -15 l-105 -4 0 -33 c0 -25
5 -34 23 -39 74 -20 165 4 350 90 209 98 270 122 352 139 132 27 232 2 470
-118 173 -87 212 -99 328 -105 l97 -4 0 36 0 36 -82 0 c-92 0 -166 16 -151 31
6 6 29 10 52 11 49 0 63 18 71 93 4 42 9 51 27 53 43 6 103 -118 103 -214 0
-64 -13 -74 -93 -74 -89 0 -199 35 -371 119 -196 95 -274 121 -368 121 -103 0
-145 -13 -358 -116 -150 -71 -215 -97 -279 -110 -90 -18 -178 -14 -193 8 -14
20 0 124 23 179 36 83 108 121 101 53z m-518 -73 c122 -100 333 -228 483 -291
l52 -22 99 51 c135 69 254 107 397 126 165 22 165 22 165 45 0 16 7 20 30 20
25 0 30 -4 30 -25 0 -24 3 -25 54 -25 130 0 327 -55 492 -136 l110 -55 90 38
c49 21 132 64 184 95 84 49 131 83 300 211 32 24 41 27 59 18 11 -7 21 -16 21
-20 0 -29 -290 -234 -437 -309 -294 -149 -567 -214 -903 -215 -195 -1 -297 11
-478 54 -296 72 -620 240 -830 433 l-43 40 23 12 c13 8 25 13 27 14 2 0 36
-26 75 -59z m66 -377 c22 -15 40 -28 40 -29 0 -6 -91 -381 -95 -393 -4 -11
-15 -8 -48 12 -23 14 -41 29 -41 33 1 4 4 24 8 44 6 35 4 37 -44 67 l-50 31
-29 -25 c-36 -30 -38 -30 -85 2 l-39 26 34 27 c19 14 90 72 159 128 69 57 131
103 138 103 7 0 30 -12 52 -26z m2537 -106 l155 -122 -29 -23 c-42 -34 -60
-37 -89 -14 -15 12 -32 21 -39 21 -21 0 -95 -59 -91 -72 19 -60 17 -67 -24
-94 -22 -15 -43 -24 -46 -21 -5 5 -103 382 -104 399 0 12 85 58 98 53 7 -3 83
-60 169 -127z m-2229 -57 c15 -8 22 -30 32 -108 19 -145 21 -147 58 -51 45
116 41 112 91 92 23 -9 40 -22 37 -28 -9 -24 -99 -254 -118 -303 -21 -57 -30
-61 -81 -37 l-34 17 -18 131 c-10 72 -21 137 -24 143 -4 7 -26 -39 -50 -102
-24 -63 -46 -115 -49 -115 -20 0 -82 25 -82 33 0 9 90 248 125 334 l14 33 40
-15 c22 -7 49 -18 59 -24z m1825 -6 c9 -20 17 -40 17 -44 0 -5 -32 -11 -70
-13 -77 -4 -119 -29 -106 -64 6 -15 16 -16 87 -11 96 8 140 -6 163 -52 45 -87
-21 -182 -149 -216 -91 -23 -100 -21 -119 25 -9 22 -16 44 -16 49 0 4 24 6 54
3 68 -5 124 12 138 44 6 13 8 27 4 32 -4 4 -52 7 -107 7 -93 0 -100 2 -124 26
-16 16 -29 41 -32 66 -10 73 39 129 142 165 78 27 98 24 118 -17z m-376 -279
c101 -166 115 -196 91 -196 -7 0 -29 -3 -50 -6 -33 -6 -38 -4 -53 26 -16 31
-18 32 -63 25 -67 -10 -80 -20 -84 -62 -3 -35 -6 -37 -50 -49 -36 -9 -48 -9
-48 0 2 53 40 399 45 404 8 9 87 31 99 28 5 -1 56 -78 113 -170z m-866 127
c30 -16 54 -34 53 -40 -1 -7 -2 -29 -2 -48 -2 -40 -19 -46 -48 -14 -85 94
-224 39 -224 -87 0 -52 43 -109 91 -119 36 -8 37 -7 45 32 6 29 4 31 -31 37
-36 7 -37 8 -32 43 4 19 8 37 11 40 4 4 114 -13 150 -24 16 -5 18 -12 12 -67
-3 -33 -11 -78 -16 -98 -9 -32 -16 -38 -46 -44 -73 -14 -184 15 -233 59 -31
28 -60 93 -61 133 0 44 26 127 51 158 56 71 181 88 280 39z m495 -18 c-3 -8
-30 -48 -61 -88 -30 -41 -55 -80 -55 -88 0 -8 31 -57 70 -109 l70 -95 -58 -7
c-65 -8 -65 -8 -136 97 -46 68 -56 61 -56 -37 l0 -68 -48 0 -49 0 -6 137 c-4
75 -7 165 -7 200 l0 63 55 0 54 0 3 -80 3 -80 58 85 58 85 56 0 c45 0 54 -3
49 -15z"/>
<path d="M4048 5867 c-34 -106 -36 -97 22 -97 38 0 51 4 48 13 -3 6 -13 37
-23 67 -9 30 -20 58 -24 62 -3 4 -13 -16 -23 -45z"/>
<path d="M3428 5419 c-74 -17 -268 -126 -268 -150 0 -17 230 -58 323 -59 l37
0 0 110 0 110 -27 -1 c-16 -1 -45 -5 -65 -10z"/>
<path d="M3580 5320 c0 -107 1 -110 23 -110 47 0 204 21 271 37 l70 16 -39 33
c-55 46 -160 100 -231 119 -99 26 -94 31 -94 -95z"/>
<path d="M3159 5395 c-91 -18 -188 -46 -194 -56 -5 -7 94 -49 116 -49 8 0 126
85 154 111 11 11 8 11 -76 -6z"/>
<path d="M3870 5392 c13 -9 48 -36 76 -59 29 -24 61 -43 71 -43 10 0 41 11 68
24 l50 24 -30 12 c-31 12 -164 44 -225 54 l-35 5 25 -17z"/>
<path d="M3500 4964 c-108 -23 -188 -26 -234 -8 -13 5 -14 2 -5 -25 6 -17 14
-31 17 -31 4 0 17 -8 29 -18 l23 -17 -25 -62 c-20 -48 -28 -92 -35 -191 -5
-70 -14 -141 -20 -156 -25 -68 -2 -85 57 -40 l33 25 0 -26 c0 -40 29 -44 60
-7 31 38 40 40 40 10 1 -57 38 -62 61 -9 17 37 27 39 35 6 14 -58 56 -54 68 8
l7 32 21 -37 c34 -58 67 -59 68 0 0 29 6 28 37 -8 13 -16 33 -30 44 -30 30 0
24 48 -16 131 -19 41 -35 79 -35 86 0 9 -18 13 -57 14 l-58 1 46 8 c56 10 85
24 98 49 8 13 25 20 66 23 51 4 95 27 95 50 0 4 -18 8 -40 8 -37 0 -110 22
-110 34 0 2 26 21 57 40 59 37 92 43 137 26 21 -8 27 -6 36 10 5 10 10 30 10
44 0 40 -48 45 -185 20 -25 -4 -32 -1 -46 24 -28 50 -98 54 -279 16z m252 -71
c-7 -42 -21 -53 -63 -53 -28 0 -41 5 -49 20 -8 15 -21 20 -55 20 -25 0 -45 5
-45 10 0 6 30 10 68 11 37 1 78 5 92 9 48 15 58 12 52 -17z"/>
<path d="M3720 4893 c0 -6 -14 -9 -31 -7 -35 4 -37 -17 -2 -22 21 -4 51 21 39
33 -3 3 -6 2 -6 -4z"/>
<path d="M1620 4472 c-21 -42 -22 -42 -16 -42 8 0 38 61 33 66 -2 2 -10 -8
-17 -24z"/>
<path d="M5461 4485 c0 -5 6 -21 14 -35 8 -14 14 -20 14 -15 0 6 -6 21 -14 35
-8 14 -14 21 -14 15z"/>
<path d="M3500 4157 c-8 -18 -20 -31 -25 -30 -6 1 -9 -14 -7 -36 3 -29 -2 -44
-21 -67 -20 -23 -27 -26 -39 -16 -13 10 -15 8 -11 -12 3 -16 10 -23 19 -19 11
4 14 -5 14 -35 0 -32 -6 -45 -26 -61 -15 -12 -33 -21 -40 -21 -17 0 -34 31
-35 67 -1 23 -2 24 -6 6 -6 -29 -52 -66 -76 -59 -11 3 -17 0 -14 -7 5 -16 49
-9 63 9 15 19 34 18 34 -1 0 -9 12 -20 26 -25 22 -9 29 -7 46 15 27 35 38 31
39 -12 0 -31 2 -34 9 -18 5 11 9 14 9 7 1 -7 11 -17 24 -21 17 -7 26 -4 39 12
25 32 22 44 -5 19 l-23 -22 -23 24 c-32 34 -39 105 -16 156 10 22 22 40 27 40
5 0 7 14 3 31 -5 24 -2 36 15 54 12 13 20 30 18 38 -2 10 -9 4 -18 -16z"/>
<path d="M3595 4124 c-6 -2 -9 -19 -8 -37 4 -34 -23 -98 -44 -105 -7 -2 -22
11 -34 30 -12 18 -18 25 -15 15 3 -10 6 -28 6 -38 0 -11 4 -18 9 -14 5 3 13 0
16 -6 4 -5 13 -8 21 -5 17 6 19 -35 4 -64 -13 -24 -2 -54 15 -40 6 5 15 7 19
3 4 -4 2 5 -3 20 -12 31 -14 96 -5 121 9 25 22 19 27 -11 l4 -28 2 28 1 29 32
-27 32 -27 9 26 c5 14 13 24 18 20 5 -3 9 0 9 5 0 18 14 13 48 -18 l32 -30 0
27 c1 26 1 26 16 7 13 -18 14 -17 8 14 -7 31 -6 33 14 22 11 -6 24 -15 27 -21
8 -12 35 -1 35 15 0 7 -9 11 -22 9 -24 -4 -60 20 -71 46 -3 8 -6 -1 -6 -21 -1
-20 -8 -42 -16 -49 -12 -10 -20 -6 -46 19 -36 36 -39 37 -39 13 0 -10 -6 -26
-13 -36 -11 -15 -18 -16 -34 -8 -26 14 -47 64 -41 97 3 14 5 25 4 24 0 0 -6
-3 -11 -5z"/>
<path d="M3133 3955 c-6 -7 -8 -18 -3 -26 7 -11 10 -10 15 3 10 24 2 38 -12
23z"/>
<path d="M3207 3928 c-11 -12 -27 -18 -38 -15 -10 3 -19 2 -19 -2 0 -16 12
-19 40 -11 20 6 30 5 33 -3 3 -7 5 3 4 21 0 17 0 32 -1 31 -1 0 -9 -10 -19
-21z"/>
<path d="M3680 3910 c0 -5 10 -24 23 -43 16 -23 26 -30 32 -23 7 7 -1 22 -22
43 -18 17 -33 27 -33 23z"/>
<path d="M3731 3804 c0 -11 3 -14 6 -6 3 7 2 16 -1 19 -3 4 -6 -2 -5 -13z"/>
<path d="M3561 3794 c0 -11 3 -14 6 -6 3 7 2 16 -1 19 -3 4 -6 -2 -5 -13z"/>
<path d="M5184 3643 c-29 -6 -61 -42 -68 -78 -8 -39 -1 -48 54 -69 25 -10 59
-31 76 -48 30 -29 33 -29 61 -15 29 15 53 53 53 84 0 31 -40 100 -64 111 -31
14 -85 21 -112 15z"/>
<path d="M1931 3518 c30 -77 68 -144 105 -186 45 -50 43 -25 -5 74 -67 137
-144 223 -100 112z"/>
<path d="M4945 3338 c-15 -13 -28 -38 -31 -58 -6 -33 -4 -36 29 -48 20 -7 53
-30 74 -52 38 -39 38 -39 70 -24 54 27 65 91 25 152 -35 53 -122 69 -167 30z"/>
<path d="M2212 3274 c3 -33 15 -78 26 -100 22 -42 68 -91 78 -81 16 16 -57
199 -92 228 -16 13 -17 10 -12 -47z"/>
<path d="M2435 3155 c13 -73 67 -151 118 -168 15 -6 17 -3 12 16 -12 39 -68
126 -103 160 l-34 32 7 -40z"/>
<path d="M4675 3145 c-31 -30 -31 -39 -2 -78 12 -17 29 -52 37 -77 13 -40 19
-45 48 -48 25 -3 39 3 62 27 53 53 35 152 -34 185 -48 23 -83 20 -111 -9z"/>
<path d="M2045 3120 c-13 -20 135 -65 192 -58 l28 3 -45 33 c-38 28 -52 32
-106 32 -35 0 -66 -5 -69 -10z"/>
<path d="M2690 3087 c0 -26 60 -97 99 -117 77 -39 81 -21 11 50 -58 57 -110
89 -110 67z"/>
<path d="M4362 3040 c-26 -24 -26 -27 -7 -60 8 -14 14 -48 15 -77 0 -58 14
-73 68 -73 42 0 92 58 92 106 0 42 -22 87 -52 108 -32 23 -90 20 -116 -4z"/>
<path d="M2363 2950 c-67 -30 -56 -44 30 -37 118 10 181 35 125 51 -44 11
-113 5 -155 -14z"/>
<path d="M2684 2883 c-41 -32 -46 -38 -28 -41 27 -4 126 33 156 58 l23 19 -51
1 c-44 0 -58 -5 -100 -37z"/>
<path d="M3080 3486 c0 -59 2 -67 15 -56 11 9 13 24 8 58 -9 75 -23 73 -23 -2z"/>
<path d="M3007 3461 c29 -22 54 -41 57 -41 15 0 -11 43 -33 54 -65 33 -75 28
-24 -13z"/>
<path d="M3090 3397 c0 -4 11 -12 24 -18 18 -9 30 -7 55 5 17 9 31 19 31 22 0
3 -25 4 -55 2 -30 -2 -55 -6 -55 -11z"/>
<path d="M3002 3358 c-12 -23 -21 -43 -19 -44 2 -2 23 17 47 41 42 42 43 45
20 45 -19 0 -31 -10 -48 -42z"/>
<path d="M3997 3525 c-11 -61 -8 -91 8 -105 12 -10 24 -5 70 30 31 24 54 45
51 47 -9 9 -75 -27 -86 -47 -16 -30 -22 -20 -29 52 -6 62 -7 63 -14 23z"/>
<path d="M3915 3390 c35 -23 58 -25 74 -7 16 20 3 27 -53 27 l-51 0 30 -20z"/>
<path d="M3551 3456 c-1 -98 -1 -99 19 -81 25 22 25 34 1 115 l-19 65 -1 -99z"/>
<path d="M3360 3406 c0 -7 161 -58 166 -53 3 3 1 14 -5 25 -7 13 -25 21 -57
26 -53 7 -104 8 -104 2z"/>
<path d="M3653 3373 c-46 -14 -83 -29 -83 -34 0 -4 13 -10 29 -14 23 -5 42 2
92 34 74 47 72 48 -38 14z"/>
<path d="M3486 3317 c-15 -11 -66 -119 -66 -141 0 -5 25 25 55 67 30 41 55 78
55 81 0 10 -26 6 -44 -7z"/>
<path d="M3550 3288 c1 -28 10 -40 54 -75 29 -24 56 -43 59 -43 8 0 -92 138
-104 146 -5 3 -9 -10 -9 -28z"/>
<path d="M2946 2153 c-6 -14 -5 -15 5 -6 7 7 10 15 7 18 -3 3 -9 -2 -12 -12z"/>
<path d="M4141 2144 c0 -11 3 -14 6 -6 3 7 2 16 -1 19 -3 4 -6 -2 -5 -13z"/>
<path d="M3384 1846 c-109 -18 -219 -45 -240 -60 -14 -11 -9 -18 47 -60 80
-60 158 -100 236 -120 100 -26 94 -35 91 117 l-3 132 -25 2 c-14 1 -62 -4
-106 -11z"/>
<path d="M3580 1724 l0 -136 42 7 c59 10 144 41 193 70 54 31 145 103 145 114
0 16 -206 64 -327 75 l-53 5 0 -135z"/>
<path d="M3002 1727 c-34 -17 -59 -34 -54 -39 11 -11 232 -68 267 -68 l30 0
-40 27 c-22 14 -63 45 -90 69 l-51 42 -62 -31z"/>
<path d="M3999 1733 c-8 -9 -43 -38 -78 -65 -35 -26 -57 -48 -48 -48 48 0 277
59 277 71 0 12 -95 59 -118 59 -11 0 -26 -7 -33 -17z"/>
<path d="M2263 1511 l-43 -39 25 -16 c13 -9 28 -16 33 -16 5 0 16 25 24 55 8
30 13 55 9 55 -3 -1 -25 -18 -48 -39z"/>
<path d="M4787 1491 l15 -60 29 15 c36 18 36 24 2 55 -63 56 -63 56 -46 -10z"/>
<path d="M4006 1209 c-3 -18 -6 -45 -6 -61 0 -28 2 -29 33 -23 17 4 34 9 37
12 4 4 -41 92 -51 99 -4 2 -9 -10 -13 -27z"/>
<path d="M5217 6185 c-87 -56 -158 -106 -157 -111 1 -5 12 -15 24 -23 21 -13
27 -12 57 7 l34 21 63 -46 63 -45 -6 -42 c-6 -38 -4 -44 20 -60 15 -10 28 -16
29 -14 4 4 86 356 86 367 0 5 -12 18 -27 29 l-28 19 -158 -102z m120 -69 c-7
-27 -17 -51 -22 -53 -6 -1 -26 10 -44 26 l-35 29 55 35 c31 20 55 30 56 23 2
-6 -3 -33 -10 -60z"/>
<path d="M1635 6245 c-22 -8 -41 -15 -42 -15 -1 0 -9 -13 -18 -30 -21 -41 -19
-75 8 -105 19 -22 35 -28 102 -36 118 -14 125 -16 125 -43 0 -33 -24 -49 -64
-44 -31 3 -37 0 -47 -25 -15 -35 -2 -47 49 -47 64 0 119 44 129 104 11 67 -48
116 -140 116 -62 0 -105 10 -111 26 -8 20 22 44 55 44 22 0 30 5 35 25 4 14 5
27 3 29 -14 13 -50 13 -84 1z"/>
<path d="M985 1765 c-71 -51 -131 -98 -133 -104 -4 -11 48 -90 59 -91 3 0 14
9 23 19 17 18 17 21 0 45 -9 15 -15 28 -13 30 2 2 54 39 115 83 93 66 110 82
102 96 -5 9 -12 17 -16 16 -4 0 -65 -42 -137 -94z"/>
<path d="M5936 1825 c-9 -9 -16 -29 -16 -43 0 -63 63 -99 157 -89 70 7 106 -5
101 -36 -2 -16 -11 -23 -30 -25 -22 -3 -28 -9 -28 -28 0 -21 4 -24 38 -24 96
0 101 110 8 154 -29 14 -51 16 -104 10 -55 -5 -70 -3 -81 9 -16 20 -6 37 20
37 15 0 20 6 17 23 -4 28 -57 36 -82 12z"/>
<path d="M1087 1623 c-120 -50 -157 -70 -155 -82 4 -16 20 -18 68 -6 21 5 30
-1 53 -34 l28 -41 -23 -30 c-20 -27 -21 -32 -6 -46 14 -14 25 -2 120 127 89
121 104 146 94 161 -6 10 -13 18 -16 18 -3 0 -76 -30 -163 -67z m72 -57 c-18
-25 -36 -46 -40 -46 -3 0 -14 11 -23 25 l-17 26 53 23 c29 13 55 22 57 21 2
-2 -12 -24 -30 -49z"/>
<path d="M5809 1661 c-29 -29 -31 -36 -27 -81 10 -98 97 -180 200 -188 53 -4
59 -2 89 27 29 29 31 36 27 80 -10 100 -96 182 -200 189 -53 4 -59 2 -89 -27z
m162 -44 c41 -28 79 -82 79 -113 0 -63 -86 -85 -147 -38 -38 29 -73 80 -73
105 0 9 9 28 21 43 26 33 73 35 120 3z"/>
<path d="M1223 1458 c-65 -61 -119 -115 -121 -118 -1 -4 4 -13 13 -20 14 -12
27 -3 96 66 43 43 79 74 79 68 0 -6 -18 -55 -40 -110 -41 -99 -47 -139 -21
-139 17 0 249 216 250 233 1 7 -6 15 -15 19 -11 4 -40 -19 -95 -73 -43 -43
-79 -74 -79 -68 0 5 20 59 44 119 32 79 41 114 34 123 -6 6 -14 12 -19 12 -4
0 -61 -50 -126 -112z"/>
<path d="M5685 1500 c-11 -5 -33 -21 -48 -37 l-28 -30 121 -116 c67 -65 125
-117 129 -117 5 0 14 6 20 14 9 11 0 24 -45 65 -30 28 -52 51 -47 51 5 0 40
-13 78 -29 63 -27 70 -28 81 -13 16 21 14 23 -66 56 -59 24 -65 30 -66 57 -2
54 -83 116 -129 99z m63 -62 c16 -16 15 -43 -1 -57 -19 -15 -73 39 -55 57 15
15 41 15 56 0z"/>
<path d="M1450 1358 c-119 -137 -140 -168 -140 -207 0 -24 7 -44 18 -54 19
-17 67 -22 96 -11 29 11 198 214 192 230 -10 27 -30 12 -111 -81 -85 -99 -106
-115 -130 -95 -26 21 -17 42 46 115 103 119 115 135 98 146 -21 13 -20 13 -69
-43z"/>
<path d="M5512 1348 c-7 -7 -12 -16 -12 -20 0 -8 138 -305 147 -317 2 -3 10 2
19 10 13 13 13 19 0 50 -14 34 -14 34 25 67 l39 33 34 -20 c30 -19 35 -19 46
-6 8 10 9 19 4 24 -12 11 -282 191 -287 191 -2 0 -8 -5 -15 -12z m113 -105
c22 -14 42 -28 44 -29 6 -5 -30 -44 -40 -44 -5 0 -20 23 -34 50 -14 28 -22 50
-17 50 4 0 25 -12 47 -27z"/>
<path d="M1623 1233 c-16 -21 -63 -80 -103 -132 l-74 -94 33 -28 c49 -41 80
-49 125 -34 100 35 184 186 141 252 -21 32 -66 72 -81 73 -6 0 -24 -17 -41
-37z m59 -50 c26 -31 29 -54 9 -98 -20 -45 -76 -95 -107 -95 -10 0 -30 9 -43
19 l-24 18 68 86 c38 48 71 87 75 87 4 0 14 -8 22 -17z"/>
<path d="M5374 1226 c-4 -10 62 -192 84 -231 8 -14 -22 10 -110 88 -68 60 -79
67 -98 57 -21 -11 -21 -11 -2 -43 11 -18 47 -85 82 -149 34 -65 65 -120 70
-123 4 -3 13 2 20 9 9 12 1 34 -41 113 -58 109 -64 109 65 -6 53 -47 61 -51
74 -37 13 13 13 21 -7 68 -13 29 -31 76 -42 103 l-19 50 72 -78 c71 -75 90
-88 103 -67 8 13 -212 260 -232 260 -7 0 -16 -6 -19 -14z"/>
<path d="M1884 1062 c-39 -31 -47 -59 -40 -147 6 -69 4 -84 -9 -95 -21 -18
-49 -2 -53 29 -6 36 -46 24 -50 -15 -6 -66 70 -103 119 -58 40 36 50 69 47
156 -3 77 -1 83 17 83 11 0 21 -9 25 -21 4 -18 9 -20 29 -13 20 8 23 14 17 42
-11 55 -60 74 -102 39z"/>
<path d="M1975 887 c-79 -138 -88 -184 -46 -218 27 -22 56 -24 91 -5 14 8 55
66 96 138 71 121 73 127 39 141 -3 1 -36 -50 -73 -113 -56 -96 -72 -116 -94
-118 -57 -7 -38 60 69 230 28 45 28 45 5 57 -16 9 -27 -6 -87 -112z"/>
<path d="M4887 919 c-16 -9 -12 -19 34 -105 28 -52 50 -97 48 -99 -2 -2 -48
30 -101 71 -63 48 -102 72 -112 68 -9 -3 -16 -11 -16 -18 0 -6 36 -77 78 -158
72 -136 80 -147 96 -135 17 13 15 19 -34 110 -28 53 -49 97 -45 97 4 0 44 -28
89 -63 102 -79 102 -80 126 -72 19 6 15 17 -56 153 -42 81 -80 150 -83 154 -3
4 -14 2 -24 -3z"/>
<path d="M2147 750 l-78 -149 51 -26 50 -25 12 26 c9 20 10 28 2 31 -6 2 -19
9 -29 16 -16 12 -12 23 44 136 34 67 59 126 56 131 -16 26 -37 -1 -108 -140z"/>
<path d="M5158 851 c-25 -16 -26 -30 -2 -59 2 -3 63 25 72 33 8 7 -20 45 -31
44 -7 0 -24 -8 -39 -18z"/>
<path d="M2318 834 c-10 -22 -10 -28 6 -39 17 -13 15 -21 -40 -140 -47 -104
-55 -128 -43 -136 8 -5 17 -9 20 -9 3 0 32 55 63 123 50 108 59 122 80 120 16
-1 27 6 35 24 7 14 10 27 8 29 -1 2 -29 15 -60 29 l-57 25 -12 -26z"/>
<path d="M4684 824 c-11 -5 96 -297 116 -318 4 -4 15 -4 23 0 13 8 6 33 -46
166 -34 87 -66 158 -72 157 -5 0 -15 -3 -21 -5z"/>
<path d="M2427 635 c-54 -80 -95 -150 -92 -155 11 -18 33 -10 54 19 l21 29 51
-16 c50 -16 51 -17 47 -54 -3 -30 0 -39 15 -44 10 -3 20 -4 22 -2 1 1 7 80 12
173 9 149 8 172 -5 183 -9 6 -18 12 -21 12 -3 0 -50 -65 -104 -145z m88 -32
c-6 -39 -9 -43 -28 -37 -39 11 -40 21 -6 71 38 54 46 45 34 -34z"/>
<path d="M4500 755 c-20 -7 -34 -18 -32 -26 2 -8 26 -81 54 -162 57 -165 49
-158 135 -122 69 29 80 125 27 233 -41 84 -100 109 -184 77z m112 -56 c39 -21
74 -140 50 -175 -8 -13 -46 -34 -60 -34 -16 0 -82 208 -69 214 21 8 58 6 79
-5z"/>
<path d="M2676 703 c-25 -85 -86 -302 -86 -306 0 -3 9 -7 20 -10 12 -3 21 1
24 12 32 110 58 192 61 189 2 -2 12 -53 21 -113 17 -110 26 -135 48 -135 14 0
110 316 101 330 -17 27 -35 5 -55 -62 -12 -40 -26 -89 -33 -108 -13 -41 -12
-43 -36 110 -15 94 -19 105 -38 108 -14 2 -23 -3 -27 -15z"/>
<path d="M4274 688 l-31 -10 45 -156 c24 -87 48 -161 52 -165 12 -13 86 11
116 37 58 50 34 209 -42 275 -37 33 -79 39 -140 19z m123 -70 c33 -36 44 -65
45 -115 0 -37 -4 -50 -22 -65 -44 -36 -55 -26 -87 87 -17 57 -28 107 -25 110
14 14 70 3 89 -17z"/>
<path d="M4185 660 c-3 -5 4 -62 15 -126 24 -134 22 -164 -15 -164 -33 0 -40
17 -64 159 -11 62 -22 115 -25 118 -3 3 -12 3 -21 -1 -19 -7 -18 -16 16 -186
22 -112 42 -144 92 -148 72 -6 92 50 67 194 -25 138 -32 164 -45 164 -8 0 -17
-4 -20 -10z"/>
<path d="M2990 643 c0 -5 -13 -81 -29 -170 -15 -90 -25 -163 -20 -163 4 0 14
-2 22 -6 11 -4 17 12 26 72 l13 76 41 -6 c23 -4 42 -8 44 -10 1 -1 -3 -34 -11
-74 -14 -75 -13 -82 14 -82 13 0 21 29 43 158 15 86 27 162 27 168 0 7 -9 14
-19 17 -17 4 -21 -4 -30 -56 -6 -33 -13 -62 -15 -64 -3 -3 -22 -2 -44 2 l-39
6 10 55 c5 30 6 61 3 69 -5 15 -36 21 -36 8z"/>
<path d="M3974 598 c17 -103 26 -181 22 -185 -2 -2 -32 41 -67 96 -50 78 -69
100 -86 101 -13 0 -23 -1 -23 -2 0 -2 9 -73 20 -158 11 -85 20 -161 20 -167 0
-7 11 -13 25 -13 21 0 25 4 20 23 -9 44 -26 189 -22 193 2 3 33 -40 67 -96 52
-82 67 -100 88 -100 20 0 23 4 19 22 -3 13 -13 89 -23 171 -17 142 -19 147
-41 147 -21 0 -23 -4 -19 -32z"/>
<path d="M3261 588 c-23 -61 -111 -309 -111 -313 0 -3 9 -5 21 -5 13 0 25 11
35 35 12 28 19 35 42 34 55 -2 77 -14 82 -44 4 -22 12 -31 28 -33 26 -4 28
-28 -17 208 -24 123 -28 135 -49 138 -16 2 -25 -3 -31 -20z m44 -157 l7 -43
-33 7 c-19 4 -35 8 -37 10 -1 1 4 17 11 36 8 19 17 43 22 54 l7 20 8 -20 c4
-11 11 -40 15 -64z"/>
<path d="M3462 603 c-18 -7 -42 -57 -42 -87 0 -14 19 -53 43 -88 55 -80 60
-94 41 -113 -12 -11 -20 -12 -35 -5 -10 6 -19 15 -19 20 0 16 -30 11 -37 -6
-9 -23 16 -61 49 -75 25 -10 33 -9 56 8 58 43 53 113 -13 199 -50 64 -51 67
-30 84 13 10 19 9 35 -5 20 -18 21 -18 34 0 26 36 -35 87 -82 68z"/>
<path d="M3631 433 c-23 -93 -41 -171 -41 -175 0 -5 9 -8 20 -8 14 0 22 11 30
40 l11 40 54 0 c54 0 54 0 61 -35 5 -28 11 -35 30 -35 29 0 28 -6 5 71 -84
278 -81 269 -105 269 -21 0 -26 -12 -65 -167z m90 12 l16 -55 -33 0 c-19 0
-34 4 -34 10 0 18 24 100 30 100 3 0 12 -25 21 -55z"/>
</g>
</svg>
