<svg id="Layer_1" enable-background="new 0 0 512 512" viewBox="0 0 512 512" xmlns="http://www.w3.org/2000/svg"><path clip-rule="evenodd" d="m449.92 382.68c0-10.38-3.15-20.33-9.13-28.77-1.91-2.71-1.27-6.45 1.43-8.37 2.7-1.91 6.45-1.27 8.36 1.43 7.42 10.48 11.34 22.82 11.34 35.7 0 30.43-22.11 55.79-51.1 60.88l8.74 7.21c2.56 2.11 2.92 5.89.82 8.45-1.19 1.44-2.91 2.18-4.64 2.18-1.34 0-2.69-.45-3.81-1.37l-20.77-17.11c-1.23-1.02-2.01-2.47-2.16-4.06-.15-1.58.33-3.16 1.34-4.39l17.12-20.78c2.11-2.56 5.89-2.93 8.44-.82 2.56 2.11 2.93 5.89.82 8.45l-8.69 10.55c23.72-3.8 41.89-24.4 41.89-49.18zm-250.55-212.41c20.29-4.5 43.79-7.18 67.37-7.91v-28.14l-18.83-.58c-3.61-.11-6.64-2.54-7.53-6.04-2.23-8.72-5.68-17.07-10.27-24.81-1.84-3.1-1.42-6.96 1.05-9.59l12.91-13.73-23.83-23.83-13.73 12.9c-2.64 2.47-6.49 2.89-9.6 1.05-7.73-4.59-16.08-8.05-24.82-10.28-3.51-.89-5.94-3.92-6.05-7.54l-.56-18.82h-33.68l-.57 18.82c-.11 3.62-2.54 6.65-6.05 7.54-8.73 2.22-17.09 5.68-24.84 10.28-3.11 1.85-6.97 1.42-9.6-1.06l-13.71-12.89-23.81 23.82 12.9 13.7c2.48 2.63 2.91 6.5 1.06 9.6-4.6 7.74-8.06 16.1-10.29 24.85-.89 3.51-3.92 5.94-7.53 6.04l-18.83.57v33.68l18.83.56c3.61.11 6.64 2.54 7.53 6.05 2.23 8.75 5.69 17.11 10.29 24.84 1.85 3.11 1.42 6.97-1.06 9.6l-12.9 13.71 23.81 23.82 13.71-12.91c2.63-2.48 6.49-2.9 9.6-1.06 7.75 4.6 16.11 8.06 24.85 10.29 3.5.89 5.93 3.92 6.04 7.54l.57 18.82h7.33v-59.92c0-1.6.21-3.16.6-4.68-11.09-1.82-21.31-7.02-29.44-15.15-10.24-10.24-15.88-23.86-15.88-38.35 0-14.48 5.64-28.1 15.88-38.34 21.15-21.15 55.55-21.15 76.7 0 10.24 10.24 15.88 23.86 15.88 38.34 0 6.66-1.19 13.14-3.5 19.21zm-48.24 38.98c0-14.65 49.1-35.1 129.05-35.1 79.96 0 129.05 20.44 129.05 35.1v.02c-.04 14.65-49.13 35.08-129.05 35.08-79.94 0-129.05-20.44-129.05-35.1zm0 82.2v-62.26c23.42 17.76 77.46 27.16 129.05 27.16 51.6 0 105.63-9.4 129.05-27.16v53.46c-3.01-.27-6.06-.42-9.14-.42-33.9 0-63.92 16.88-82.12 42.66-12.21 1.1-24.91 1.66-37.79 1.66-79.94 0-129.05-20.44-129.05-35.1zm155.68 128.5c-8.74.53-17.67.81-26.63.81-36.65 0-71.18-4.37-97.24-12.3-13.8-4.2-24.45-9.17-31.81-14.76v62.16c0 14.66 49.1 35.1 129.05 35.1 35.1 0 68.53-4.27 92.89-11.53-30.21-8.45-54.71-30.69-66.26-59.48zm-3.88-11.78c-2.14-8.14-3.28-16.68-3.28-25.49 0-16.23 3.87-31.57 10.73-45.15-9.86.67-19.97 1.02-30.19 1.02-36.65 0-71.18-4.37-97.24-12.3-13.8-4.2-24.45-9.17-31.81-14.76v62.16c0 14.66 49.1 35.1 129.05 35.1 7.64.01 15.26-.19 22.74-.58zm185.6-25.49c0-48.77-39.67-88.45-88.44-88.45s-88.45 39.68-88.45 88.45 39.68 88.44 88.45 88.44 88.44-39.67 88.44-88.44zm-100.45-28.84c1.73 0 3.45-.74 4.63-2.18l17.12-20.78c2.11-2.56 1.74-6.34-.81-8.44l-20.78-17.12c-2.56-2.11-6.34-1.74-8.44.81-2.11 2.56-1.75 6.34.81 8.45l8.75 7.21c-29 5.1-51.11 30.45-51.11 60.89 0 12.88 3.92 25.22 11.34 35.7 1.17 1.65 3.02 2.53 4.9 2.53 1.2 0 2.41-.36 3.46-1.1 2.71-1.92 3.35-5.66 1.43-8.37-5.97-8.44-9.13-18.38-9.13-28.76 0-24.78 18.18-45.38 41.9-49.2l-8.7 10.55c-2.1 2.56-1.74 6.34.82 8.45 1.12.91 2.48 1.36 3.81 1.36z" fill-rule="evenodd"/></svg>