<svg height="511pt" viewBox="-6 1 511 511.99892" width="511pt" xmlns="http://www.w3.org/2000/svg"><path d="m165.003906 366.773438c-85.320312 0-154.488281-21.734376-154.488281-48.542969v84.265625c0 26.808594 69.167969 48.542968 154.488281 48.542968 85.320313 0 154.484375-21.734374 154.484375-48.542968v-84.261719c0 26.804687-69.164062 48.539063-154.484375 48.539063zm0 0" fill="#9bdcff"/><path d="m319.488281 58.414062c0-26.808593-69.164062-48.542968-154.484375-48.542968-85.320312 0-154.488281 21.734375-154.488281 48.542968 0 26.808594 69.167969 48.539063 154.488281 48.539063 85.320313 0 154.484375-21.730469 154.484375-48.539063zm0 0" fill="#6ab6ff"/><path d="m165.003906 106.953125c-85.320312 0-154.488281-21.730469-154.488281-48.539063v91.285157c0 26.808593 69.167969 48.542969 154.488281 48.542969 85.320313 0 154.484375-21.734376 154.484375-48.542969v-91.285157c0 26.808594-69.164062 48.539063-154.484375 48.539063zm0 0" fill="#9bdcff"/><path d="m422.230469 501.980469h-98.875c-23.441407 0-42.445313-19.003907-42.445313-42.445313v-163.835937h183.765625v163.835937c0 23.441406-19.003906 42.445313-42.445312 42.445313zm0 0" fill="#ff8db2"/><path d="m458.371094 237.914062h-171.15625c-16.6875 0-30.21875 13.53125-30.21875 30.222657v5.28125c0 12.304687 9.976562 22.28125 22.28125 22.28125h187.035156c12.304688 0 22.277344-9.976563 22.277344-22.28125v-5.28125c0-16.691407-13.527344-30.222657-30.21875-30.222657zm0 0" fill="#ffe671"/><path d="m256.996094 268.136719c0-16.691407 13.53125-30.222657 30.21875-30.222657h31.761718c.335938-1.300781.511719-2.617187.511719-3.949218v-84.265625c0 26.808593-69.164062 48.542969-154.488281 48.542969-85.320312 0-154.484375-21.734376-154.484375-48.542969v84.265625c0 26.808594 69.164063 48.542968 154.484375 48.542968 34.46875 0 66.296875-3.550781 91.996094-9.542968zm0 0" fill="#9bdcff"/><path d="m280.910156 295.699219h-1.632812c-12.304688 0-22.28125-9.976563-22.28125-22.28125v-.453125c-25.699219 5.992187-57.527344 9.539062-91.992188 9.539062-85.320312 0-154.488281-21.730468-154.488281-48.539062v84.265625c0 26.808593 69.167969 48.542969 154.488281 48.542969 46.167969 0 87.597656-6.367188 115.90625-16.453126zm0 0" fill="#9bdcff"/><path d="m77.339844 106.769531c5.738281-2.351562 8.050781-9.472656 4.496094-14.804687-2.523438-3.855469-7.726563-5.574219-12.160157-3.683594-4.574219 1.90625-6.910156 6.703125-5.992187 11.199219 1.265625 6.234375 7.871094 9.699219 13.65625 7.289062zm0 0"/><path d="m458.371094 227.898438h-22.292969v-12.730469c0-14.855469-12.085937-26.945313-26.941406-26.945313-76.078125.316406-73.566407-.707031-79.628907.914063v-130.722657c0-77.742187-329.007812-78.027343-329.007812 0v259.816407 84.265625c0 55.550781 172.613281 73.277344 270.390625 45.757812v11.28125c0 28.925782 23.539063 52.464844 52.46875 52.464844h98.871094c28.929687 0 52.464843-23.539062 52.464843-52.464844v-154.929687c13.757813-3.703125 23.914063-16.277344 23.914063-31.1875v-5.28125c0-22.1875-18.050781-40.238281-40.238281-40.238281zm-128.828125-12.730469c0-3.8125 3.097656-6.910157 6.910156-6.910157h72.683594c3.808593 0 6.910156 3.101563 6.910156 6.910157v12.730469h-86.503906zm-81.199219 42.589843c-.632812 2.363282-1.054688 4.917969-1.230469 7.105469-55.886719 11.433594-135.492187 10.476563-188.347656-6.128906-26.410156-8.300781-38.230469-18.417969-38.230469-24.769531v-54.695313c10.328125 6.691407 23.144532 11.621094 34.835938 15.136719 73.660156 22.148438 203.332031 17.761719 254.101562-15.136719v48.628907c-18.480468.015624-51.871094-4.839844-61.128906 29.859374zm22.546875 46.855469v38.484375c-57.21875 17.871094-152.679687 18.578125-212.125-.097656-26.410156-8.300781-38.234375-18.417969-38.234375-24.769531v-54.695313c22.882812 14.867188 59.898438 22.273438 86.980469 25.582032 44.335937 5.429687 97.070312 4.597656 141.578125-4.207032 3.683594 9.640625 11.875 17.03125 21.800781 19.703125zm-212.125-270.96875c58.421875-18.355469 154.039063-18.359375 212.472656 0 26.410157 8.300781 38.234375 18.417969 38.234375 24.769531 0 6.347657-11.824218 16.46875-38.234375 24.765626-45.394531 14.265624-108.191406 16.421874-156.503906 11.070312-5.488281-.601562-10.449219 3.355469-11.0625 8.851562-.605469 5.5 3.359375 10.453126 8.855469 11.058594 55.550781 6.15625 152.023437 3.011719 196.945312-26.175781v61.714844c0 6.347656-11.824218 16.46875-38.234375 24.769531-58.421875 18.355469-154.039062 18.359375-212.472656 0-26.410156-8.300781-38.234375-18.421875-38.234375-24.769531v-61.722657c3.6875 2.40625 7.824219 4.632813 11.777344 6.488282 5.011718 2.347656 10.972656.191406 13.324218-4.816406 2.347657-5.007813.191407-10.972657-4.816406-13.320313-14.957031-7.015625-20.285156-13.855469-20.285156-17.914063 0-6.351562 11.824219-16.46875 38.234375-24.769531zm0 393.621094c-26.410156-8.300781-38.234375-18.421875-38.234375-24.769531v-54.695313c55.609375 36.132813 186.417969 34.222657 250.359375 16.191407v63.378906c-57.53125 17.96875-152.992187 18.472656-212.125-.105469zm395.894531 32.269531c0 17.882813-14.546875 32.429688-32.429687 32.429688h-98.875c-17.882813 0-32.429688-14.546875-32.429688-32.429688v-24.921875c0-.007812 0-.019531 0-.027343v-128.871094h163.734375zm23.914063-186.117187c0 6.761719-5.5 12.261719-12.261719 12.261719-10.601562 0-175.195312 0-185.402344 0-.703125-.117188-5.90625.800781-10.300781-3.59375-4.992187-4.996094-3.230469-10.851563-3.59375-13.949219 0-10.445313 7.964844-19.0625 18.136719-20.101563 1.90625-.191406.546875-.066406 33.828125-.101562h139.390625c11.140625 0 20.203125 9.0625 20.203125 20.203125zm0 0"/><path d="m372.792969 477.308594c5.53125 0 10.019531-4.484375 10.019531-10.015625v-136.90625c0-5.53125-4.488281-10.015625-10.019531-10.015625s-10.015625 4.484375-10.015625 10.015625v136.90625c0 5.53125 4.484375 10.015625 10.015625 10.015625zm0 0"/><path d="m324.40625 454.136719c5.535156 0 10.019531-4.488281 10.019531-10.019531v-90.554688c0-5.53125-4.484375-10.015625-10.019531-10.015625-5.53125 0-10.015625 4.484375-10.015625 10.015625v90.554688c0 5.53125 4.484375 10.019531 10.015625 10.019531zm0 0"/><path d="m421.179688 454.136719c5.53125 0 10.015624-4.488281 10.015624-10.019531v-90.554688c0-5.53125-4.484374-10.015625-10.015624-10.015625s-10.015626 4.484375-10.015626 10.015625v90.554688c0 5.53125 4.484376 10.019531 10.015626 10.019531zm0 0"/></svg>